<?xml version="1.0" standalone="no"?>
<!DOCTYPE svg PUBLIC "-//W3C//DTD SVG 20010904//EN"
 "http://www.w3.org/TR/2001/REC-SVG-20010904/DTD/svg10.dtd">
<svg version="1.0" xmlns="http://www.w3.org/2000/svg"
 width="1123.000000pt" height="951.000000pt" viewBox="0 0 1123.000000 951.000000"
 preserveAspectRatio="xMidYMid meet">

<g transform="translate(0.000000,951.000000) scale(0.100000,-0.100000)"
fill="#000000" stroke="none">
<path d="M2331 9324 c0 -11 3 -14 6 -6 3 7 2 16 -1 19 -3 4 -6 -2 -5 -13z"/>
<path d="M4420 9326 c0 -9 5 -16 10 -16 6 0 10 4 10 9 0 6 -4 13 -10 16 -5 3
-10 -1 -10 -9z"/>
<path d="M1668 9323 c20 -4 22 -10 22 -73 0 -67 -1 -69 -27 -73 -16 -2 -1 -4
32 -4 33 0 48 2 33 4 -28 4 -28 5 -28 79 l0 74 -27 -1 c-24 -2 -25 -2 -5 -6z"/>
<path d="M3118 9323 c20 -4 22 -10 22 -73 0 -67 -1 -69 -27 -73 -16 -2 -1 -4
32 -4 33 0 48 2 33 4 -28 4 -28 5 -28 79 l0 74 -27 -1 c-24 -2 -25 -2 -5 -6z"/>
<path d="M1493 9314 c9 -3 17 -10 17 -15 0 -20 -40 -113 -52 -121 -8 -5 1 -7
22 -7 19 1 27 3 17 6 -11 3 -16 10 -13 20 3 8 6 17 6 19 0 2 18 4 39 4 26 0
41 -5 45 -16 8 -22 8 -22 -11 -27 -10 -3 -2 -5 17 -6 20 0 30 3 23 7 -7 4 -23
37 -37 72 -22 61 -26 65 -57 67 -19 1 -26 -1 -16 -3z m50 -31 c2 -10 8 -26 12
-35 6 -15 2 -18 -24 -18 -17 0 -31 2 -31 4 0 1 5 17 11 35 12 35 24 40 32 14z"/>
<path d="M2461 9303 c0 -12 -9 -24 -18 -26 -16 -4 -16 -5 -1 -6 13 -1 18 -12
20 -48 3 -46 4 -48 37 -51 18 -2 37 0 42 5 5 5 -9 7 -31 5 l-40 -4 0 45 c0 44
1 46 33 50 l32 4 -32 1 c-24 2 -33 7 -36 25 -4 22 -4 22 -6 0z"/>
<path d="M3568 9313 c8 -3 12 -27 12 -68 0 -41 -4 -65 -12 -68 -7 -3 17 -6 55
-6 61 -1 67 1 67 19 0 11 -4 20 -10 20 -5 0 -10 -7 -10 -15 0 -11 -11 -15 -40
-15 -38 0 -40 1 -40 31 0 28 3 31 25 27 20 -4 25 -1 24 16 0 11 -3 15 -6 9 -2
-7 -13 -13 -24 -13 -14 0 -19 7 -19 30 0 28 2 30 39 30 29 0 41 -5 44 -17 4
-14 5 -12 6 5 1 21 -3 22 -61 21 -35 0 -57 -3 -50 -6z"/>
<path d="M1823 9279 c-43 -16 -38 -90 7 -104 10 -3 28 -1 40 5 18 9 20 8 20
-14 0 -20 -6 -27 -27 -32 -46 -10 -49 -12 -17 -13 44 -1 54 15 54 85 0 41 4
64 13 67 6 3 -2 5 -19 4 -17 0 -35 2 -40 5 -5 3 -19 2 -31 -3z m57 -24 c17
-20 5 -61 -19 -68 -25 -6 -61 19 -61 42 0 38 55 56 80 26z"/>
<path d="M1989 9276 c-17 -8 -25 -22 -27 -44 -4 -43 12 -62 54 -62 25 0 38 7
51 26 15 23 15 29 2 52 -18 32 -50 44 -80 28z m71 -26 c6 -12 8 -30 5 -40 -7
-24 -52 -37 -74 -23 -20 13 -26 50 -11 69 19 21 67 18 80 -6z"/>
<path d="M2605 9279 c-16 -3 -24 -7 -17 -8 7 -1 12 -17 12 -45 0 -26 -5 -46
-12 -49 -7 -3 -4 -6 7 -6 17 -1 20 5 20 46 0 37 4 48 18 51 14 3 17 -4 17 -47
0 -42 3 -51 18 -50 10 0 12 3 5 6 -14 5 -17 50 -7 77 3 9 15 16 25 16 16 0 19
-8 19 -50 0 -41 3 -50 18 -50 11 0 13 3 5 8 -6 4 -13 28 -15 52 -3 43 -5 45
-34 46 -17 1 -35 3 -40 6 -5 2 -22 1 -39 -3z"/>
<path d="M2787 9269 c-31 -24 -35 -59 -9 -82 38 -35 102 -12 102 37 0 52 -52
78 -93 45z m71 -11 c16 -16 15 -53 -2 -67 -8 -7 -27 -11 -43 -9 -34 4 -54 47
-33 72 15 19 61 21 78 4z"/>
<path d="M3275 9278 c-63 -35 -38 -108 38 -108 20 0 38 4 41 9 4 5 -11 7 -32
4 -29 -4 -43 -1 -57 13 -18 19 -17 19 38 22 47 2 57 6 57 21 0 34 -52 58 -85
39z m63 -20 c21 -21 13 -28 -31 -28 -50 0 -62 7 -46 27 14 16 61 17 77 1z"/>
<path d="M3780 9280 c-8 -5 -22 -7 -30 -5 -12 4 -14 -4 -11 -41 2 -32 -1 -49
-10 -55 -10 -6 -4 -8 16 -8 17 0 24 3 18 6 -16 6 -17 65 -1 81 17 17 55 15 62
-4 10 -27 7 -72 -6 -77 -7 -3 -4 -6 7 -6 19 -1 20 3 15 45 -6 52 -33 81 -60
64z"/>
<path d="M3918 9276 c-29 -14 -36 -66 -13 -90 17 -16 80 -22 89 -8 2 4 -11 6
-30 4 -33 -4 -64 10 -64 29 0 5 22 9 49 9 57 0 66 8 46 37 -19 26 -47 34 -77
19z m70 -28 c3 -15 -4 -18 -42 -18 -32 0 -46 4 -46 13 0 22 12 28 50 25 24 -2
36 -9 38 -20z"/>
<path d="M4239 9277 c-36 -18 -39 -70 -4 -93 21 -13 31 -15 50 -6 22 10 25 9
25 -6 0 -25 -19 -42 -49 -43 -23 -2 -24 -2 -4 -6 12 -2 31 1 42 7 18 9 21 20
21 75 0 41 4 65 13 69 6 4 1 4 -12 2 -13 -3 -32 -1 -41 4 -10 5 -25 4 -41 -3z
m59 -19 c29 -29 -7 -82 -49 -71 -24 7 -36 48 -19 68 15 18 51 20 68 3z"/>
<path d="M4570 9280 c-22 -6 -20 -8 14 -11 51 -5 61 -29 13 -29 -32 0 -67 -20
-67 -38 1 -23 21 -31 75 -30 32 1 54 3 47 6 -7 2 -12 20 -12 40 0 57 -22 75
-70 62z m55 -60 c11 -17 -15 -40 -46 -40 -35 0 -48 19 -24 37 22 16 61 17 70
3z"/>
<path d="M2138 9273 c7 -3 12 -23 12 -48 0 -33 -4 -45 -17 -48 -10 -3 7 -4 37
-4 31 0 41 2 23 4 -28 4 -33 8 -33 32 0 34 32 65 60 58 11 -3 20 -1 20 4 0 12
-37 11 -61 -1 -13 -7 -19 -7 -19 0 0 5 -8 10 -17 9 -11 0 -13 -3 -5 -6z"/>
<path d="M2308 9273 c19 -4 22 -11 22 -48 0 -40 -2 -44 -27 -48 -16 -2 -1 -4
32 -4 33 0 48 2 33 4 -26 4 -28 8 -28 54 0 47 -1 49 -27 48 -24 -2 -25 -2 -5
-6z"/>
<path d="M3428 9273 c7 -3 12 -23 12 -48 0 -33 -4 -45 -17 -48 -10 -3 7 -4 37
-4 31 0 41 2 23 4 -28 4 -33 8 -33 32 0 34 32 65 60 58 11 -3 20 -1 20 4 0 12
-37 11 -61 -1 -13 -7 -19 -7 -19 0 0 5 -8 10 -17 9 -11 0 -13 -3 -5 -6z"/>
<path d="M4073 9273 c13 -3 17 -15 17 -48 0 -37 -3 -44 -22 -48 -13 -2 2 -4
32 -4 30 0 42 2 27 4 -26 4 -28 8 -25 41 3 32 8 39 38 49 31 10 32 12 10 12
-15 1 -31 -4 -38 -11 -9 -9 -12 -9 -12 0 0 7 -10 11 -22 11 -17 -1 -19 -2 -5
-6z"/>
<path d="M4408 9273 c20 -4 23 -10 20 -46 -2 -34 -7 -42 -28 -48 -16 -5 -4 -7
35 -7 33 1 48 3 33 5 -26 4 -28 8 -28 54 0 47 -1 49 -27 48 -25 -2 -25 -2 -5
-6z"/>
<path d="M2001 8674 c0 -11 3 -14 6 -6 3 7 2 16 -1 19 -3 4 -6 -2 -5 -13z"/>
<path d="M2164 8668 l-19 -23 23 19 c21 18 27 26 19 26 -2 0 -12 -10 -23 -22z"/>
<path d="M2640 8676 c0 -9 5 -16 10 -16 6 0 10 4 10 9 0 6 -4 13 -10 16 -5 3
-10 -1 -10 -9z"/>
<path d="M1470 8633 c9 -21 23 -55 31 -76 7 -20 17 -36 22 -34 5 1 21 32 35
67 14 36 30 68 36 72 6 4 -2 8 -19 8 -21 0 -26 -3 -16 -9 12 -8 10 -18 -9 -66
-12 -31 -26 -53 -30 -48 -4 4 -16 31 -28 60 -19 47 -19 52 -4 56 10 3 6 5 -10
6 l-26 1 18 -37z"/>
<path d="M1660 8630 c-22 -6 -20 -8 14 -11 51 -5 61 -29 13 -29 -32 0 -67 -20
-67 -38 1 -23 21 -31 75 -30 32 1 54 3 47 6 -7 2 -12 20 -12 40 0 57 -22 75
-70 62z m55 -60 c11 -17 -15 -40 -46 -40 -35 0 -48 19 -24 37 22 16 61 17 70
3z"/>
<path d="M2140 8629 c-21 -6 -17 -7 18 -8 30 -1 42 -5 42 -16 0 -10 -10 -15
-28 -15 -37 0 -65 -21 -60 -46 3 -16 12 -19 62 -20 32 -1 53 1 48 5 -6 3 -12
26 -14 50 -3 49 -23 63 -68 50z m60 -62 c0 -21 -22 -37 -52 -37 -21 0 -28 5
-28 19 0 22 13 29 53 30 16 1 27 -4 27 -12z"/>
<path d="M2459 8626 c-30 -15 -37 -60 -13 -87 18 -20 69 -25 93 -10 10 6 0 8
-27 4 -27 -4 -47 -1 -57 7 -27 22 -16 30 40 30 37 0 55 4 55 13 -1 36 -54 62
-91 43z m70 -19 c6 -8 8 -17 4 -20 -9 -10 -93 -9 -93 1 0 30 68 44 89 19z"/>
<path d="M2791 8628 c-35 -12 -22 -41 22 -51 27 -7 37 -14 35 -26 -4 -20 -54
-27 -74 -10 -11 9 -14 8 -14 -3 0 -10 13 -15 43 -17 79 -4 88 50 11 65 -42 8
-46 34 -6 34 15 0 33 -5 40 -12 9 -9 12 -8 12 4 0 19 -38 28 -69 16z"/>
<path d="M1808 8623 c7 -3 12 -23 12 -48 0 -33 -4 -45 -17 -48 -10 -3 7 -4 37
-4 31 0 41 2 23 4 -28 4 -33 8 -33 32 0 34 32 65 60 58 11 -3 20 -1 20 4 0 12
-37 11 -61 -1 -13 -7 -19 -7 -19 0 0 5 -8 10 -17 9 -11 0 -13 -3 -5 -6z"/>
<path d="M1978 8623 c19 -4 22 -11 22 -48 0 -40 -2 -44 -27 -48 -16 -2 -1 -4
32 -4 33 0 48 2 33 4 -26 4 -28 8 -28 54 0 47 -1 49 -27 48 -24 -2 -25 -2 -5
-6z"/>
<path d="M2266 8622 c6 -4 21 -28 32 -54 11 -27 25 -48 30 -48 5 0 17 19 28
41 10 23 24 48 32 55 11 12 9 14 -15 14 -16 0 -23 -4 -17 -8 9 -5 8 -17 -3
-44 -8 -21 -18 -38 -22 -38 -4 0 -15 16 -25 37 -14 29 -15 38 -4 44 9 6 3 9
-17 9 -16 0 -25 -4 -19 -8z"/>
<path d="M2628 8623 c20 -4 23 -10 20 -46 -2 -34 -7 -42 -28 -48 -16 -5 -4 -7
35 -7 33 1 48 3 33 5 -26 4 -28 8 -28 54 0 47 -1 49 -27 48 -25 -2 -25 -2 -5
-6z"/>
<path d="M2957 8624 c-9 -10 2 -24 19 -24 8 0 14 7 14 15 0 15 -21 21 -33 9z"/>
<path d="M2957 8544 c-9 -10 2 -24 19 -24 8 0 14 7 14 15 0 15 -21 21 -33 9z"/>
<path d="M2970 8356 c0 -9 5 -16 10 -16 6 0 10 4 10 9 0 6 -4 13 -10 16 -5 3
-10 -1 -10 -9z"/>
<path d="M4260 8356 c0 -9 5 -16 10 -16 6 0 10 4 10 9 0 6 -4 13 -10 16 -5 3
-10 -1 -10 -9z"/>
<path d="M4580 8355 c0 -8 5 -15 10 -15 6 0 10 7 10 15 0 8 -4 15 -10 15 -5 0
-10 -7 -10 -15z"/>
<path d="M4911 8354 c0 -11 3 -14 6 -6 3 7 2 16 -1 19 -3 4 -6 -2 -5 -13z"/>
<path d="M2152 8309 c-35 -13 -48 -53 -28 -84 13 -20 25 -25 56 -25 21 0 41 4
45 9 3 6 -9 7 -30 4 -34 -5 -65 8 -65 28 0 5 23 9 50 9 42 0 50 3 50 19 0 32
-41 54 -78 40z m52 -15 c9 -3 16 -12 16 -20 0 -10 -13 -14 -45 -14 -43 0 -58
14 -38 33 8 9 46 9 67 1z"/>
<path d="M2330 8310 c-8 -5 -22 -7 -30 -5 -12 4 -14 -4 -11 -41 2 -32 -1 -49
-10 -55 -10 -6 -4 -8 16 -8 17 0 24 3 18 6 -16 6 -17 65 -1 81 17 17 55 15 62
-4 10 -27 7 -72 -6 -77 -7 -3 -4 -6 7 -6 19 -1 20 3 15 45 -6 52 -33 81 -60
64z"/>
<path d="M2468 8306 c-29 -14 -36 -66 -13 -90 17 -16 80 -22 89 -8 2 4 -11 6
-30 4 -33 -4 -64 10 -64 29 0 5 22 9 49 9 57 0 66 8 46 37 -19 26 -47 34 -77
19z m70 -28 c3 -15 -4 -18 -42 -18 -32 0 -46 4 -46 13 0 22 12 28 50 25 24 -2
36 -9 38 -20z"/>
<path d="M2789 8307 c-36 -18 -39 -70 -4 -93 21 -13 31 -15 50 -6 22 10 25 9
25 -6 0 -25 -19 -42 -49 -43 -23 -2 -24 -2 -4 -6 12 -2 31 1 42 7 18 9 21 20
21 75 0 41 4 65 13 69 6 4 1 4 -12 2 -13 -3 -32 -1 -41 4 -10 5 -25 4 -41 -3z
m59 -19 c29 -29 -7 -82 -49 -71 -24 7 -36 48 -19 68 15 18 51 20 68 3z"/>
<path d="M3120 8310 c-22 -6 -20 -8 14 -11 51 -5 61 -29 13 -29 -32 0 -67 -20
-67 -38 1 -23 21 -31 75 -30 32 1 54 3 47 6 -7 2 -12 20 -12 40 0 57 -22 75
-70 62z m55 -60 c11 -17 -15 -40 -46 -40 -35 0 -48 19 -24 37 22 16 61 17 70
3z"/>
<path d="M3455 8310 c-11 -5 -31 -6 -45 -4 -14 2 -19 1 -12 -2 8 -4 12 -29 12
-74 0 -45 -4 -70 -12 -73 -7 -3 5 -5 27 -5 22 0 30 3 18 5 -18 3 -23 11 -23
34 0 33 0 33 34 18 20 -10 30 -9 51 5 54 35 11 119 -50 96z m53 -22 c19 -19
14 -46 -12 -63 -42 -27 -89 13 -66 56 12 22 59 26 78 7z"/>
<path d="M3601 8308 c-34 -12 -22 -40 24 -52 52 -15 54 -40 3 -44 -22 -2 -38
1 -38 7 0 6 -4 11 -10 11 -5 0 -10 -6 -10 -13 0 -19 83 -22 99 -4 18 22 4 43
-37 53 -20 5 -37 14 -37 19 0 16 57 18 66 3 7 -10 9 -9 9 3 0 20 -38 29 -69
17z"/>
<path d="M3921 8308 c-34 -12 -22 -40 24 -52 23 -7 40 -18 40 -26 0 -19 -51
-26 -71 -9 -11 9 -14 8 -14 -5 0 -12 10 -16 38 -16 46 0 65 12 60 36 -2 11
-17 22 -41 29 -21 6 -39 15 -40 20 -3 16 55 18 64 3 7 -10 9 -9 9 3 0 20 -38
29 -69 17z"/>
<path d="M4420 8310 c-6 -4 -20 -6 -29 -3 -13 3 -16 -5 -16 -51 0 -43 3 -56
15 -56 11 0 15 12 15 47 0 47 1 48 30 48 28 0 30 -3 33 -39 2 -24 -2 -42 -10
-47 -9 -6 -7 -9 7 -9 19 0 20 5 15 51 -4 41 -10 53 -26 59 -11 5 -27 5 -34 0z"/>
<path d="M4729 8306 c-27 -13 -38 -68 -18 -92 13 -16 85 -19 94 -5 3 6 -9 7
-30 4 -40 -6 -65 9 -65 41 0 29 18 46 50 46 14 0 31 -5 38 -12 9 -9 12 -8 12
7 0 10 -3 16 -6 12 -3 -3 -16 -2 -29 3 -14 5 -31 4 -46 -4z"/>
<path d="M5049 8306 c-17 -8 -25 -22 -27 -44 -4 -43 12 -62 54 -62 25 0 38 7
51 26 15 23 15 29 2 52 -18 32 -50 44 -80 28z m71 -26 c6 -12 8 -30 5 -40 -7
-24 -52 -37 -74 -23 -20 13 -26 50 -11 69 19 21 67 18 80 -6z"/>
<path d="M2618 8303 c7 -3 12 -23 12 -48 0 -33 -4 -45 -17 -48 -10 -3 7 -4 37
-4 31 0 41 2 23 4 -28 4 -33 8 -33 32 0 34 32 65 60 58 11 -3 20 -1 20 4 0 13
-44 11 -59 -3 -11 -10 -14 -10 -18 0 -3 6 -12 12 -21 11 -11 0 -12 -2 -4 -6z"/>
<path d="M2958 8303 c20 -4 23 -10 20 -46 -2 -34 -7 -42 -28 -48 -16 -5 -4 -7
35 -7 33 1 48 3 33 5 -26 4 -28 8 -28 54 0 47 -1 49 -27 48 -25 -2 -25 -2 -5
-6z"/>
<path d="M3726 8302 c6 -4 21 -27 33 -51 28 -54 22 -88 -17 -94 -17 -3 -11 -4
18 -5 28 -1 40 2 32 7 -11 6 -6 23 22 80 36 70 36 71 14 71 -16 0 -19 -3 -10
-9 11 -6 10 -15 -4 -44 -10 -21 -21 -37 -24 -37 -3 0 -14 16 -24 37 -14 29
-15 38 -4 44 9 6 3 9 -17 9 -16 0 -25 -4 -19 -8z"/>
<path d="M4248 8303 c20 -4 23 -10 20 -46 -2 -34 -7 -42 -28 -48 -16 -5 -4 -7
35 -7 33 1 48 3 33 5 -26 4 -28 8 -28 54 0 47 -1 49 -27 48 -25 -2 -25 -2 -5
-6z"/>
<path d="M4568 8303 c19 -4 22 -11 22 -48 0 -40 -2 -44 -27 -48 -16 -2 -1 -4
32 -4 33 0 48 2 33 4 -26 4 -28 8 -28 54 0 47 -1 49 -27 48 -24 -2 -25 -2 -5
-6z"/>
<path d="M4888 8303 c19 -4 22 -11 22 -48 0 -40 -2 -44 -27 -48 -16 -2 -1 -4
32 -4 33 0 48 2 33 4 -26 4 -28 8 -28 54 0 47 -1 49 -27 48 -24 -2 -25 -2 -5
-6z"/>
<path d="M3263 8173 c26 -2 67 -2 90 0 23 2 2 3 -48 3 -49 0 -68 -1 -42 -3z"/>
<path d="M4068 8173 c23 -2 61 -2 85 0 23 2 4 4 -43 4 -47 0 -66 -2 -42 -4z"/>
<path d="M2970 8026 c0 -9 5 -16 10 -16 6 0 10 4 10 9 0 6 -4 13 -10 16 -5 3
-10 -1 -10 -9z"/>
<path d="M4420 8026 c0 -9 5 -16 10 -16 6 0 10 4 10 9 0 6 -4 13 -10 16 -5 3
-10 -1 -10 -9z"/>
<path d="M4262 8018 c-7 -7 -12 -18 -12 -24 0 -7 -8 -15 -17 -17 -17 -4 -17
-5 0 -6 13 -1 17 -10 17 -45 0 -34 -4 -46 -17 -49 -10 -3 7 -4 37 -4 31 0 41
2 23 4 -32 4 -33 6 -33 48 0 42 1 44 33 48 l32 4 -33 1 c-47 3 -40 35 8 43 35
6 35 6 5 8 -17 0 -36 -4 -43 -11z"/>
<path d="M2152 7979 c-35 -13 -48 -53 -28 -84 13 -20 25 -25 56 -25 21 0 41 4
45 9 3 6 -9 7 -30 4 -34 -5 -65 8 -65 28 0 5 23 9 50 9 42 0 50 3 50 19 0 32
-41 54 -78 40z m52 -15 c9 -3 16 -12 16 -20 0 -10 -13 -14 -45 -14 -43 0 -58
14 -38 33 8 9 46 9 67 1z"/>
<path d="M2330 7980 c-8 -5 -22 -7 -30 -5 -12 4 -14 -4 -11 -41 2 -32 -1 -49
-10 -55 -10 -6 -4 -8 16 -8 17 0 24 3 18 6 -16 6 -17 65 -1 81 17 17 55 15 62
-4 10 -27 7 -72 -6 -77 -7 -3 -4 -6 7 -6 19 -1 20 3 15 45 -6 52 -33 81 -60
64z"/>
<path d="M2468 7976 c-29 -14 -36 -66 -13 -90 17 -16 80 -22 89 -8 2 4 -11 6
-30 4 -33 -4 -64 10 -64 29 0 5 22 9 49 9 57 0 66 8 46 37 -19 26 -47 34 -77
19z m70 -28 c3 -15 -4 -18 -42 -18 -32 0 -46 4 -46 13 0 22 12 28 50 25 24 -2
36 -9 38 -20z"/>
<path d="M2789 7977 c-36 -18 -39 -70 -4 -93 21 -13 31 -15 50 -6 22 10 25 9
25 -6 0 -25 -19 -42 -49 -43 -23 -2 -24 -2 -4 -6 12 -2 31 1 42 7 18 9 21 20
21 75 0 41 4 65 13 69 6 4 1 4 -12 2 -13 -3 -32 -1 -41 4 -10 5 -25 4 -41 -3z
m59 -19 c29 -29 -7 -82 -49 -71 -24 7 -36 48 -19 68 15 18 51 20 68 3z"/>
<path d="M3120 7980 c-22 -6 -20 -8 14 -11 51 -5 61 -29 13 -29 -32 0 -67 -20
-67 -38 1 -23 21 -31 75 -30 32 1 54 3 47 6 -7 2 -12 20 -12 40 0 57 -22 75
-70 62z m55 -60 c11 -17 -15 -40 -46 -40 -35 0 -48 19 -24 37 22 16 61 17 70
3z"/>
<path d="M3455 7980 c-11 -5 -31 -6 -45 -4 -14 2 -19 1 -12 -2 8 -4 12 -29 12
-74 0 -45 -4 -70 -12 -73 -7 -3 5 -5 27 -5 22 0 30 3 18 5 -18 3 -23 11 -23
34 0 33 0 33 34 18 20 -10 30 -9 51 5 54 35 11 119 -50 96z m53 -22 c19 -19
14 -46 -12 -63 -42 -27 -89 13 -66 56 12 22 59 26 78 7z"/>
<path d="M3601 7978 c-34 -12 -22 -40 24 -52 52 -15 54 -40 3 -44 -22 -2 -38
1 -38 7 0 6 -4 11 -10 11 -5 0 -10 -6 -10 -13 0 -19 83 -22 99 -4 18 22 4 43
-37 53 -20 5 -37 14 -37 19 0 16 57 18 66 3 7 -10 9 -9 9 3 0 20 -38 29 -69
17z"/>
<path d="M3921 7978 c-34 -12 -22 -40 24 -52 23 -7 40 -18 40 -26 0 -19 -51
-26 -71 -9 -11 9 -14 8 -14 -5 0 -12 10 -16 38 -16 46 0 65 12 60 36 -2 11
-17 22 -41 29 -21 6 -39 15 -40 20 -3 16 55 18 64 3 7 -10 9 -9 9 3 0 20 -38
29 -69 17z"/>
<path d="M2618 7973 c7 -3 12 -23 12 -48 0 -33 -4 -45 -17 -48 -10 -3 7 -4 37
-4 31 0 41 2 23 4 -28 4 -33 8 -33 32 0 34 32 65 60 58 11 -3 20 -1 20 4 0 13
-44 11 -59 -3 -11 -10 -14 -10 -18 0 -3 6 -12 12 -21 11 -11 0 -12 -2 -4 -6z"/>
<path d="M2958 7973 c20 -4 23 -10 20 -46 -2 -34 -7 -42 -28 -48 -16 -5 -4 -7
35 -7 33 1 48 3 33 5 -26 4 -28 8 -28 54 0 47 -1 49 -27 48 -25 -2 -25 -2 -5
-6z"/>
<path d="M3726 7972 c6 -4 21 -27 33 -51 28 -54 22 -88 -17 -94 -17 -3 -11 -4
18 -5 28 -1 40 2 32 7 -11 6 -6 23 22 80 36 70 36 71 14 71 -16 0 -19 -3 -10
-9 11 -6 10 -15 -4 -44 -10 -21 -21 -37 -24 -37 -3 0 -14 16 -24 37 -14 29
-15 38 -4 44 9 6 3 9 -17 9 -16 0 -25 -4 -19 -8z"/>
<path d="M4408 7973 c20 -4 23 -10 20 -46 -2 -34 -7 -42 -28 -48 -16 -5 -4 -7
35 -7 33 1 48 3 33 5 -26 4 -28 8 -28 54 0 47 -1 49 -27 48 -25 -2 -25 -2 -5
-6z"/>
<path d="M4525 7925 c0 -48 2 -55 20 -55 15 0 16 3 7 9 -8 5 -12 23 -10 47 2
32 7 40 26 42 20 3 22 0 22 -47 0 -28 3 -51 8 -51 4 0 7 21 7 47 0 41 3 48 20
48 17 0 20 -8 23 -47 2 -27 7 -48 11 -48 7 0 5 39 -4 86 -4 19 -12 21 -67 22
l-63 1 0 -54z"/>
<path d="M3263 7843 c26 -2 67 -2 90 0 23 2 2 3 -48 3 -49 0 -68 -1 -42 -3z"/>
<path d="M4068 7843 c23 -2 61 -2 85 0 23 2 4 4 -43 4 -47 0 -66 -2 -42 -4z"/>
<path d="M2970 7706 c0 -9 5 -16 10 -16 6 0 10 4 10 9 0 6 -4 13 -10 16 -5 3
-10 -1 -10 -9z"/>
<path d="M4888 7703 c20 -4 22 -10 22 -73 0 -67 -1 -69 -27 -73 -16 -2 -1 -4
32 -4 33 0 48 2 33 4 -28 4 -28 5 -28 79 l0 74 -27 -1 c-24 -2 -25 -2 -5 -6z"/>
<path d="M4231 7683 c0 -12 -9 -24 -18 -26 -16 -4 -16 -5 -1 -6 13 -1 18 -12
20 -48 3 -46 4 -48 37 -51 18 -2 37 0 42 5 4 4 -9 8 -29 8 -36 0 -37 1 -40 42
-3 42 -3 42 35 46 l38 4 -37 1 c-29 2 -37 6 -41 25 -4 22 -4 22 -6 0z"/>
<path d="M4551 7683 c0 -12 -7 -24 -13 -26 -10 -4 -10 -6 0 -6 7 -1 12 -15 12
-35 0 -56 8 -66 51 -66 21 0 39 3 39 8 0 4 -17 7 -37 7 -37 0 -38 1 -41 42 -3
42 -3 42 35 46 l38 4 -37 1 c-29 2 -37 6 -41 25 -4 22 -4 22 -6 0z"/>
<path d="M2152 7659 c-35 -13 -48 -53 -28 -84 13 -20 25 -25 56 -25 21 0 41 4
45 9 3 6 -9 7 -30 4 -34 -5 -65 8 -65 28 0 5 23 9 50 9 42 0 50 3 50 19 0 32
-41 54 -78 40z m52 -15 c9 -3 16 -12 16 -20 0 -10 -13 -14 -45 -14 -43 0 -58
14 -38 33 8 9 46 9 67 1z"/>
<path d="M2330 7660 c-8 -5 -22 -7 -30 -5 -12 4 -14 -4 -11 -41 2 -32 -1 -49
-10 -55 -10 -6 -4 -8 16 -8 17 0 24 3 18 6 -16 6 -17 65 -1 81 17 17 55 15 62
-4 10 -27 7 -72 -6 -77 -7 -3 -4 -6 7 -6 19 -1 20 3 15 45 -6 52 -33 81 -60
64z"/>
<path d="M2468 7656 c-29 -14 -36 -66 -13 -90 17 -16 80 -22 89 -8 2 4 -11 6
-30 4 -33 -4 -64 10 -64 29 0 5 22 9 49 9 57 0 66 8 46 37 -19 26 -47 34 -77
19z m70 -28 c3 -15 -4 -18 -42 -18 -32 0 -46 4 -46 13 0 22 12 28 50 25 24 -2
36 -9 38 -20z"/>
<path d="M2789 7657 c-36 -18 -39 -70 -4 -93 21 -13 31 -15 50 -6 22 10 25 9
25 -6 0 -25 -19 -42 -49 -43 -23 -2 -24 -2 -4 -6 12 -2 31 1 42 7 18 9 21 20
21 75 0 41 4 65 13 69 6 4 1 4 -12 2 -13 -3 -32 -1 -41 4 -10 5 -25 4 -41 -3z
m59 -19 c29 -29 -7 -82 -49 -71 -24 7 -36 48 -19 68 15 18 51 20 68 3z"/>
<path d="M3120 7660 c-22 -6 -20 -8 14 -11 51 -5 61 -29 13 -29 -32 0 -67 -20
-67 -38 1 -23 21 -31 75 -30 32 1 54 3 47 6 -7 2 -12 20 -12 40 0 57 -22 75
-70 62z m55 -60 c11 -17 -15 -40 -46 -40 -35 0 -48 19 -24 37 22 16 61 17 70
3z"/>
<path d="M3455 7660 c-11 -5 -31 -6 -45 -4 -14 2 -19 1 -12 -2 8 -4 12 -29 12
-74 0 -45 -4 -70 -12 -73 -7 -3 5 -5 27 -5 22 0 30 3 18 5 -18 3 -23 11 -23
34 0 33 0 33 34 18 20 -10 30 -9 51 5 54 35 11 119 -50 96z m53 -22 c19 -19
14 -46 -12 -63 -42 -27 -89 13 -66 56 12 22 59 26 78 7z"/>
<path d="M3601 7658 c-34 -12 -22 -40 24 -52 52 -15 54 -40 3 -44 -22 -2 -38
1 -38 7 0 6 -4 11 -10 11 -5 0 -10 -6 -10 -13 0 -19 83 -22 99 -4 18 22 4 43
-37 53 -20 5 -37 14 -37 19 0 16 57 18 66 3 7 -10 9 -9 9 3 0 20 -38 29 -69
17z"/>
<path d="M3921 7658 c-34 -12 -22 -40 24 -52 23 -7 40 -18 40 -26 0 -19 -51
-26 -71 -9 -11 9 -14 8 -14 -5 0 -12 10 -16 38 -16 46 0 65 12 60 36 -2 11
-17 22 -41 29 -21 6 -39 15 -40 20 -3 16 55 18 64 3 7 -10 9 -9 9 3 0 20 -38
29 -69 17z"/>
<path d="M4397 7649 c-31 -24 -35 -59 -9 -82 38 -35 102 -12 102 37 0 52 -52
78 -93 45z m71 -11 c16 -16 15 -53 -2 -67 -8 -7 -27 -11 -43 -9 -34 4 -54 47
-33 72 15 19 61 21 78 4z"/>
<path d="M4730 7660 c-22 -6 -20 -8 14 -11 51 -5 61 -29 13 -29 -32 0 -67 -20
-67 -38 1 -23 21 -31 75 -30 32 1 54 3 47 6 -7 2 -12 20 -12 40 0 57 -22 75
-70 62z m55 -60 c11 -17 -15 -40 -46 -40 -35 0 -48 19 -24 37 22 16 61 17 70
3z"/>
<path d="M2618 7653 c7 -3 12 -23 12 -48 0 -33 -4 -45 -17 -48 -10 -3 7 -4 37
-4 31 0 41 2 23 4 -28 4 -33 8 -33 32 0 34 32 65 60 58 11 -3 20 -1 20 4 0 13
-44 11 -59 -3 -11 -10 -14 -10 -18 0 -3 6 -12 12 -21 11 -11 0 -12 -2 -4 -6z"/>
<path d="M2958 7653 c20 -4 23 -10 20 -46 -2 -34 -7 -42 -28 -48 -16 -5 -4 -7
35 -7 33 1 48 3 33 5 -26 4 -28 8 -28 54 0 47 -1 49 -27 48 -25 -2 -25 -2 -5
-6z"/>
<path d="M3726 7652 c6 -4 21 -27 33 -51 28 -54 22 -88 -17 -94 -17 -3 -11 -4
18 -5 28 -1 40 2 32 7 -11 6 -6 23 22 80 36 70 36 71 14 71 -16 0 -19 -3 -10
-9 11 -6 10 -15 -4 -44 -10 -21 -21 -37 -24 -37 -3 0 -14 16 -24 37 -14 29
-15 38 -4 44 9 6 3 9 -17 9 -16 0 -25 -4 -19 -8z"/>
<path d="M3263 7523 c26 -2 67 -2 90 0 23 2 2 3 -48 3 -49 0 -68 -1 -42 -3z"/>
<path d="M4068 7523 c23 -2 61 -2 85 0 23 2 4 4 -43 4 -47 0 -66 -2 -42 -4z"/>
<path d="M2970 7376 c0 -9 5 -16 10 -16 6 0 10 4 10 9 0 6 -4 13 -10 16 -5 3
-10 -1 -10 -9z"/>
<path d="M4260 7376 c0 -9 5 -16 10 -16 6 0 10 4 10 9 0 6 -4 13 -10 16 -5 3
-10 -1 -10 -9z"/>
<path d="M4580 7375 c0 -8 5 -15 10 -15 6 0 10 7 10 15 0 8 -4 15 -10 15 -5 0
-10 -7 -10 -15z"/>
<path d="M4911 7374 c0 -11 3 -14 6 -6 3 7 2 16 -1 19 -3 4 -6 -2 -5 -13z"/>
<path d="M3498 7373 c6 -2 12 -18 12 -34 0 -29 0 -29 -25 -13 -23 15 -27 15
-49 0 -33 -21 -41 -52 -22 -81 18 -27 63 -34 84 -13 9 9 12 9 12 0 0 -7 8 -12
18 -11 10 0 12 3 5 6 -9 3 -13 29 -13 79 0 64 -2 74 -17 73 -11 0 -13 -3 -5
-6z m5 -75 c18 -28 -7 -68 -43 -68 -38 0 -59 35 -40 69 14 27 67 26 83 -1z"/>
<path d="M2152 7329 c-35 -13 -48 -53 -28 -84 13 -20 25 -25 56 -25 21 0 41 4
45 9 3 6 -9 7 -30 4 -34 -5 -65 8 -65 28 0 5 23 9 50 9 42 0 50 3 50 19 0 32
-41 54 -78 40z m52 -15 c9 -3 16 -12 16 -20 0 -10 -13 -14 -45 -14 -43 0 -58
14 -38 33 8 9 46 9 67 1z"/>
<path d="M2330 7330 c-8 -5 -22 -7 -30 -5 -12 4 -14 -4 -11 -41 2 -32 -1 -49
-10 -55 -10 -6 -4 -8 16 -8 17 0 24 3 18 6 -16 6 -17 65 -1 81 17 17 55 15 62
-4 10 -27 7 -72 -6 -77 -7 -3 -4 -6 7 -6 19 -1 20 3 15 45 -6 52 -33 81 -60
64z"/>
<path d="M2468 7326 c-29 -14 -36 -66 -13 -90 17 -16 80 -22 89 -8 2 4 -11 6
-30 4 -33 -4 -64 10 -64 29 0 5 22 9 49 9 57 0 66 8 46 37 -19 26 -47 34 -77
19z m70 -28 c3 -15 -4 -18 -42 -18 -32 0 -46 4 -46 13 0 22 12 28 50 25 24 -2
36 -9 38 -20z"/>
<path d="M2789 7327 c-36 -18 -39 -70 -4 -93 21 -13 31 -15 50 -6 22 10 25 9
25 -6 0 -25 -19 -42 -49 -43 -23 -2 -24 -2 -4 -6 12 -2 31 1 42 7 18 9 21 20
21 75 0 41 4 65 13 69 6 4 1 4 -12 2 -13 -3 -32 -1 -41 4 -10 5 -25 4 -41 -3z
m59 -19 c29 -29 -7 -82 -49 -71 -24 7 -36 48 -19 68 15 18 51 20 68 3z"/>
<path d="M3120 7330 c-22 -6 -20 -8 14 -11 51 -5 61 -29 13 -29 -32 0 -67 -20
-67 -38 1 -23 21 -31 75 -30 32 1 54 3 47 6 -7 2 -12 20 -12 40 0 57 -22 75
-70 62z m55 -60 c11 -17 -15 -40 -46 -40 -35 0 -48 19 -24 37 22 16 61 17 70
3z"/>
<path d="M3760 7329 c-21 -6 -17 -7 18 -8 30 -1 42 -5 42 -16 0 -10 -10 -15
-28 -15 -37 0 -65 -21 -60 -46 3 -16 12 -19 62 -20 32 -1 53 1 48 5 -6 3 -12
26 -14 50 -3 49 -23 63 -68 50z m60 -62 c0 -21 -22 -37 -52 -37 -21 0 -28 5
-28 19 0 22 13 29 53 30 16 1 27 -4 27 -12z"/>
<path d="M3895 7329 c-16 -3 -24 -7 -17 -8 7 -1 12 -17 12 -45 0 -26 -5 -46
-12 -49 -7 -3 -4 -6 7 -6 17 -1 20 5 20 46 0 37 4 48 18 51 14 3 17 -4 17 -47
0 -42 3 -51 18 -50 10 0 12 3 5 6 -14 5 -17 50 -7 77 3 9 15 16 25 16 16 0 19
-8 19 -50 0 -41 3 -50 18 -50 11 0 13 3 5 8 -6 4 -13 28 -15 52 -3 43 -5 45
-34 46 -17 1 -35 3 -40 6 -5 2 -22 1 -39 -3z"/>
<path d="M4420 7330 c-6 -4 -20 -6 -29 -3 -13 3 -16 -5 -16 -51 0 -43 3 -56
15 -56 11 0 15 12 15 47 0 47 1 48 30 48 28 0 30 -3 33 -39 2 -24 -2 -42 -10
-47 -9 -6 -7 -9 7 -9 19 0 20 5 15 51 -4 41 -10 53 -26 59 -11 5 -27 5 -34 0z"/>
<path d="M4729 7326 c-27 -13 -38 -68 -18 -92 13 -16 85 -19 94 -5 3 6 -9 7
-30 4 -40 -6 -65 9 -65 41 0 29 18 46 50 46 14 0 31 -5 38 -12 9 -9 12 -8 12
7 0 10 -3 16 -6 12 -3 -3 -16 -2 -29 3 -14 5 -31 4 -46 -4z"/>
<path d="M5049 7326 c-17 -8 -25 -22 -27 -44 -4 -43 12 -62 54 -62 25 0 38 7
51 26 15 23 15 29 2 52 -18 32 -50 44 -80 28z m71 -26 c6 -12 8 -30 5 -40 -7
-24 -52 -37 -74 -23 -20 13 -26 50 -11 69 19 21 67 18 80 -6z"/>
<path d="M2618 7323 c7 -3 12 -23 12 -48 0 -33 -4 -45 -17 -48 -10 -3 7 -4 37
-4 31 0 41 2 23 4 -28 4 -33 8 -33 32 0 34 32 65 60 58 11 -3 20 -1 20 4 0 13
-44 11 -59 -3 -11 -10 -14 -10 -18 0 -3 6 -12 12 -21 11 -11 0 -12 -2 -4 -6z"/>
<path d="M2958 7323 c20 -4 23 -10 20 -46 -2 -34 -7 -42 -28 -48 -16 -5 -4 -7
35 -7 33 1 48 3 33 5 -26 4 -28 8 -28 54 0 47 -1 49 -27 48 -25 -2 -25 -2 -5
-6z"/>
<path d="M3588 7323 c7 -3 12 -23 12 -48 0 -33 -4 -45 -17 -48 -10 -3 7 -4 37
-4 31 0 41 2 23 4 -28 4 -33 8 -33 32 0 34 32 65 60 58 11 -3 20 -1 20 4 0 12
-37 11 -61 -1 -13 -7 -19 -7 -19 0 0 5 -8 10 -17 9 -11 0 -13 -3 -5 -6z"/>
<path d="M4248 7323 c20 -4 23 -10 20 -46 -2 -34 -7 -42 -28 -48 -16 -5 -4 -7
35 -7 33 1 48 3 33 5 -26 4 -28 8 -28 54 0 47 -1 49 -27 48 -25 -2 -25 -2 -5
-6z"/>
<path d="M4568 7323 c19 -4 22 -11 22 -48 0 -40 -2 -44 -27 -48 -16 -2 -1 -4
32 -4 33 0 48 2 33 4 -26 4 -28 8 -28 54 0 47 -1 49 -27 48 -24 -2 -25 -2 -5
-6z"/>
<path d="M4888 7323 c19 -4 22 -11 22 -48 0 -40 -2 -44 -27 -48 -16 -2 -1 -4
32 -4 33 0 48 2 33 4 -26 4 -28 8 -28 54 0 47 -1 49 -27 48 -24 -2 -25 -2 -5
-6z"/>
<path d="M3263 7193 c26 -2 67 -2 90 0 23 2 2 3 -48 3 -49 0 -68 -1 -42 -3z"/>
<path d="M4068 7193 c23 -2 61 -2 85 0 23 2 4 4 -43 4 -47 0 -66 -2 -42 -4z"/>
<path d="M2970 7056 c0 -9 5 -16 10 -16 6 0 10 4 10 9 0 6 -4 13 -10 16 -5 3
-10 -1 -10 -9z"/>
<path d="M4420 7056 c0 -9 5 -16 10 -16 6 0 10 4 10 9 0 6 -4 13 -10 16 -5 3
-10 -1 -10 -9z"/>
<path d="M3498 7053 c6 -2 12 -18 12 -34 0 -29 0 -29 -25 -13 -23 15 -27 15
-49 0 -33 -21 -41 -52 -22 -81 18 -27 63 -34 84 -13 9 9 12 9 12 0 0 -7 8 -12
18 -11 10 0 12 3 5 6 -9 3 -13 29 -13 79 0 64 -2 74 -17 73 -11 0 -13 -3 -5
-6z m5 -75 c18 -28 -7 -68 -43 -68 -38 0 -59 35 -40 69 14 27 67 26 83 -1z"/>
<path d="M4262 7048 c-7 -7 -12 -18 -12 -24 0 -7 -8 -15 -17 -17 -17 -4 -17
-5 0 -6 13 -1 17 -10 17 -45 0 -34 -4 -46 -17 -49 -10 -3 7 -4 37 -4 31 0 41
2 23 4 -32 4 -33 6 -33 48 0 42 1 44 33 48 l32 4 -33 1 c-47 3 -40 35 8 43 35
6 35 6 5 8 -17 0 -36 -4 -43 -11z"/>
<path d="M2152 7009 c-35 -13 -48 -53 -28 -84 13 -20 25 -25 56 -25 21 0 41 4
45 9 3 6 -9 7 -30 4 -34 -5 -65 8 -65 28 0 5 23 9 50 9 42 0 50 3 50 19 0 32
-41 54 -78 40z m52 -15 c9 -3 16 -12 16 -20 0 -10 -13 -14 -45 -14 -43 0 -58
14 -38 33 8 9 46 9 67 1z"/>
<path d="M2330 7010 c-8 -5 -22 -7 -30 -5 -12 4 -14 -4 -11 -41 2 -32 -1 -49
-10 -55 -10 -6 -4 -8 16 -8 17 0 24 3 18 6 -16 6 -17 65 -1 81 17 17 55 15 62
-4 10 -27 7 -72 -6 -77 -7 -3 -4 -6 7 -6 19 -1 20 3 15 45 -6 52 -33 81 -60
64z"/>
<path d="M2468 7006 c-29 -14 -36 -66 -13 -90 17 -16 80 -22 89 -8 2 4 -11 6
-30 4 -33 -4 -64 10 -64 29 0 5 22 9 49 9 57 0 66 8 46 37 -19 26 -47 34 -77
19z m70 -28 c3 -15 -4 -18 -42 -18 -32 0 -46 4 -46 13 0 22 12 28 50 25 24 -2
36 -9 38 -20z"/>
<path d="M2789 7007 c-36 -18 -39 -70 -4 -93 21 -13 31 -15 50 -6 22 10 25 9
25 -6 0 -25 -19 -42 -49 -43 -23 -2 -24 -2 -4 -6 12 -2 31 1 42 7 18 9 21 20
21 75 0 41 4 65 13 69 6 4 1 4 -12 2 -13 -3 -32 -1 -41 4 -10 5 -25 4 -41 -3z
m59 -19 c29 -29 -7 -82 -49 -71 -24 7 -36 48 -19 68 15 18 51 20 68 3z"/>
<path d="M3120 7010 c-22 -6 -20 -8 14 -11 51 -5 61 -29 13 -29 -32 0 -67 -20
-67 -38 1 -23 21 -31 75 -30 32 1 54 3 47 6 -7 2 -12 20 -12 40 0 57 -22 75
-70 62z m55 -60 c11 -17 -15 -40 -46 -40 -35 0 -48 19 -24 37 22 16 61 17 70
3z"/>
<path d="M3760 7009 c-21 -6 -17 -7 18 -8 30 -1 42 -5 42 -16 0 -10 -10 -15
-28 -15 -37 0 -65 -21 -60 -46 3 -16 12 -19 62 -20 32 -1 53 1 48 5 -6 3 -12
26 -14 50 -3 49 -23 63 -68 50z m60 -62 c0 -21 -22 -37 -52 -37 -21 0 -28 5
-28 19 0 22 13 29 53 30 16 1 27 -4 27 -12z"/>
<path d="M3895 7009 c-16 -3 -24 -7 -17 -8 7 -1 12 -17 12 -45 0 -26 -5 -46
-12 -49 -7 -3 -4 -6 7 -6 17 -1 20 5 20 46 0 37 4 48 18 51 14 3 17 -4 17 -47
0 -42 3 -51 18 -50 10 0 12 3 5 6 -14 5 -17 50 -7 77 3 9 15 16 25 16 16 0 19
-8 19 -50 0 -41 3 -50 18 -50 11 0 13 3 5 8 -6 4 -13 28 -15 52 -3 43 -5 45
-34 46 -17 1 -35 3 -40 6 -5 2 -22 1 -39 -3z"/>
<path d="M2618 7003 c7 -3 12 -23 12 -48 0 -33 -4 -45 -17 -48 -10 -3 7 -4 37
-4 31 0 41 2 23 4 -28 4 -33 8 -33 32 0 34 32 65 60 58 11 -3 20 -1 20 4 0 13
-44 11 -59 -3 -11 -10 -14 -10 -18 0 -3 6 -12 12 -21 11 -11 0 -12 -2 -4 -6z"/>
<path d="M2958 7003 c20 -4 23 -10 20 -46 -2 -34 -7 -42 -28 -48 -16 -5 -4 -7
35 -7 33 1 48 3 33 5 -26 4 -28 8 -28 54 0 47 -1 49 -27 48 -25 -2 -25 -2 -5
-6z"/>
<path d="M3588 7003 c7 -3 12 -23 12 -48 0 -33 -4 -45 -17 -48 -10 -3 7 -4 37
-4 31 0 41 2 23 4 -28 4 -33 8 -33 32 0 34 32 65 60 58 11 -3 20 -1 20 4 0 12
-37 11 -61 -1 -13 -7 -19 -7 -19 0 0 5 -8 10 -17 9 -11 0 -13 -3 -5 -6z"/>
<path d="M4408 7003 c20 -4 23 -10 20 -46 -2 -34 -7 -42 -28 -48 -16 -5 -4 -7
35 -7 33 1 48 3 33 5 -26 4 -28 8 -28 54 0 47 -1 49 -27 48 -25 -2 -25 -2 -5
-6z"/>
<path d="M4525 6955 c0 -48 2 -55 20 -55 15 0 16 3 7 9 -8 5 -12 23 -10 47 2
32 7 40 26 42 20 3 22 0 22 -47 0 -28 3 -51 8 -51 4 0 7 21 7 47 0 41 3 48 20
48 17 0 20 -8 23 -47 2 -27 7 -48 11 -48 7 0 5 39 -4 86 -4 19 -12 21 -67 22
l-63 1 0 -54z"/>
<path d="M3263 6873 c26 -2 67 -2 90 0 23 2 2 3 -48 3 -49 0 -68 -1 -42 -3z"/>
<path d="M4068 6873 c23 -2 61 -2 85 0 23 2 4 4 -43 4 -47 0 -66 -2 -42 -4z"/>
<path d="M2970 6736 c0 -9 5 -16 10 -16 6 0 10 4 10 9 0 6 -4 13 -10 16 -5 3
-10 -1 -10 -9z"/>
<path d="M3498 6733 c6 -2 12 -18 12 -34 0 -29 0 -29 -25 -13 -23 15 -27 15
-49 0 -33 -21 -41 -52 -22 -81 18 -27 63 -34 84 -13 9 9 12 9 12 0 0 -7 8 -12
18 -11 10 0 12 3 5 6 -9 3 -13 29 -13 79 0 64 -2 74 -17 73 -11 0 -13 -3 -5
-6z m5 -75 c18 -28 -7 -68 -43 -68 -38 0 -59 35 -40 69 14 27 67 26 83 -1z"/>
<path d="M4888 6733 c20 -4 22 -10 22 -73 0 -67 -1 -69 -27 -73 -16 -2 -1 -4
32 -4 33 0 48 2 33 4 -28 4 -28 5 -28 79 l0 74 -27 -1 c-24 -2 -25 -2 -5 -6z"/>
<path d="M4231 6713 c0 -12 -9 -24 -18 -26 -16 -4 -16 -5 -1 -6 13 -1 18 -12
20 -48 3 -46 4 -48 37 -51 18 -2 37 0 42 5 4 4 -9 8 -29 8 -36 0 -37 1 -40 42
-3 42 -3 42 35 46 l38 4 -37 1 c-29 2 -37 6 -41 25 -4 22 -4 22 -6 0z"/>
<path d="M4551 6713 c0 -12 -7 -24 -13 -26 -10 -4 -10 -6 0 -6 7 -1 12 -15 12
-35 0 -56 8 -66 51 -66 21 0 39 3 39 8 0 4 -17 7 -37 7 -37 0 -38 1 -41 42 -3
42 -3 42 35 46 l38 4 -37 1 c-29 2 -37 6 -41 25 -4 22 -4 22 -6 0z"/>
<path d="M2152 6689 c-35 -13 -48 -53 -28 -84 13 -20 25 -25 56 -25 21 0 41 4
45 9 3 6 -9 7 -30 4 -34 -5 -65 8 -65 28 0 5 23 9 50 9 42 0 50 3 50 19 0 32
-41 54 -78 40z m52 -15 c9 -3 16 -12 16 -20 0 -10 -13 -14 -45 -14 -43 0 -58
14 -38 33 8 9 46 9 67 1z"/>
<path d="M2330 6690 c-8 -5 -22 -7 -30 -5 -12 4 -14 -4 -11 -41 2 -32 -1 -49
-10 -55 -10 -6 -4 -8 16 -8 17 0 24 3 18 6 -16 6 -17 65 -1 81 17 17 55 15 62
-4 10 -27 7 -72 -6 -77 -7 -3 -4 -6 7 -6 19 -1 20 3 15 45 -6 52 -33 81 -60
64z"/>
<path d="M2468 6686 c-29 -14 -36 -66 -13 -90 17 -16 80 -22 89 -8 2 4 -11 6
-30 4 -33 -4 -64 10 -64 29 0 5 22 9 49 9 57 0 66 8 46 37 -19 26 -47 34 -77
19z m70 -28 c3 -15 -4 -18 -42 -18 -32 0 -46 4 -46 13 0 22 12 28 50 25 24 -2
36 -9 38 -20z"/>
<path d="M2789 6687 c-36 -18 -39 -70 -4 -93 21 -13 31 -15 50 -6 22 10 25 9
25 -6 0 -25 -19 -42 -49 -43 -23 -2 -24 -2 -4 -6 12 -2 31 1 42 7 18 9 21 20
21 75 0 41 4 65 13 69 6 4 1 4 -12 2 -13 -3 -32 -1 -41 4 -10 5 -25 4 -41 -3z
m59 -19 c29 -29 -7 -82 -49 -71 -24 7 -36 48 -19 68 15 18 51 20 68 3z"/>
<path d="M3120 6690 c-22 -6 -20 -8 14 -11 51 -5 61 -29 13 -29 -32 0 -67 -20
-67 -38 1 -23 21 -31 75 -30 32 1 54 3 47 6 -7 2 -12 20 -12 40 0 57 -22 75
-70 62z m55 -60 c11 -17 -15 -40 -46 -40 -35 0 -48 19 -24 37 22 16 61 17 70
3z"/>
<path d="M3760 6689 c-21 -6 -17 -7 18 -8 30 -1 42 -5 42 -16 0 -10 -10 -15
-28 -15 -37 0 -65 -21 -60 -46 3 -16 12 -19 62 -20 32 -1 53 1 48 5 -6 3 -12
26 -14 50 -3 49 -23 63 -68 50z m60 -62 c0 -21 -22 -37 -52 -37 -21 0 -28 5
-28 19 0 22 13 29 53 30 16 1 27 -4 27 -12z"/>
<path d="M3895 6689 c-16 -3 -24 -7 -17 -8 7 -1 12 -17 12 -45 0 -26 -5 -46
-12 -49 -7 -3 -4 -6 7 -6 17 -1 20 5 20 46 0 37 4 48 18 51 14 3 17 -4 17 -47
0 -42 3 -51 18 -50 10 0 12 3 5 6 -14 5 -17 50 -7 77 3 9 15 16 25 16 16 0 19
-8 19 -50 0 -41 3 -50 18 -50 11 0 13 3 5 8 -6 4 -13 28 -15 52 -3 43 -5 45
-34 46 -17 1 -35 3 -40 6 -5 2 -22 1 -39 -3z"/>
<path d="M4397 6679 c-31 -24 -35 -59 -9 -82 38 -35 102 -12 102 37 0 52 -52
78 -93 45z m71 -11 c16 -16 15 -53 -2 -67 -8 -7 -27 -11 -43 -9 -34 4 -54 47
-33 72 15 19 61 21 78 4z"/>
<path d="M4730 6690 c-22 -6 -20 -8 14 -11 51 -5 61 -29 13 -29 -32 0 -67 -20
-67 -38 1 -23 21 -31 75 -30 32 1 54 3 47 6 -7 2 -12 20 -12 40 0 57 -22 75
-70 62z m55 -60 c11 -17 -15 -40 -46 -40 -35 0 -48 19 -24 37 22 16 61 17 70
3z"/>
<path d="M2618 6683 c7 -3 12 -23 12 -48 0 -33 -4 -45 -17 -48 -10 -3 7 -4 37
-4 31 0 41 2 23 4 -28 4 -33 8 -33 32 0 34 32 65 60 58 11 -3 20 -1 20 4 0 13
-44 11 -59 -3 -11 -10 -14 -10 -18 0 -3 6 -12 12 -21 11 -11 0 -12 -2 -4 -6z"/>
<path d="M2958 6683 c20 -4 23 -10 20 -46 -2 -34 -7 -42 -28 -48 -16 -5 -4 -7
35 -7 33 1 48 3 33 5 -26 4 -28 8 -28 54 0 47 -1 49 -27 48 -25 -2 -25 -2 -5
-6z"/>
<path d="M3588 6683 c7 -3 12 -23 12 -48 0 -33 -4 -45 -17 -48 -10 -3 7 -4 37
-4 31 0 41 2 23 4 -28 4 -33 8 -33 32 0 34 32 65 60 58 11 -3 20 -1 20 4 0 12
-37 11 -61 -1 -13 -7 -19 -7 -19 0 0 5 -8 10 -17 9 -11 0 -13 -3 -5 -6z"/>
<path d="M3263 6553 c26 -2 67 -2 90 0 23 2 2 3 -48 3 -49 0 -68 -1 -42 -3z"/>
<path d="M4068 6553 c23 -2 61 -2 85 0 23 2 4 4 -43 4 -47 0 -66 -2 -42 -4z"/>
<path d="M2798 6403 c21 -4 23 -9 20 -71 -3 -61 -5 -67 -28 -73 -16 -5 -4 -7
35 -7 33 1 48 3 33 5 -28 4 -28 5 -28 79 l0 74 -27 -1 c-25 -2 -25 -2 -5 -6z"/>
<path d="M2461 6383 c0 -12 -9 -24 -18 -26 -16 -4 -16 -5 -1 -6 13 -1 18 -12
20 -48 3 -46 4 -48 37 -51 18 -2 37 0 42 5 5 5 -9 7 -31 5 l-40 -4 0 45 c0 44
1 46 33 50 l32 4 -32 1 c-24 2 -33 7 -36 25 -4 22 -4 22 -6 0z"/>
<path d="M2130 6376 c0 -8 -6 -17 -12 -19 -10 -4 -10 -6 0 -6 7 -1 12 -16 12
-39 0 -21 5 -43 12 -50 13 -13 74 -16 82 -4 2 4 -13 6 -35 4 l-39 -4 0 45 c0
44 1 46 33 50 l32 4 -32 1 c-22 1 -33 7 -33 17 0 8 -4 15 -10 15 -5 0 -10 -6
-10 -14z"/>
<path d="M2320 6362 c-39 -12 -53 -68 -24 -96 34 -35 104 -8 104 41 0 32 -48
65 -80 55z m61 -33 c17 -33 -3 -69 -39 -69 -33 0 -52 16 -52 45 0 29 19 45 52
45 18 0 31 -7 39 -21z"/>
<path d="M2630 6359 c-21 -6 -17 -7 18 -8 30 -1 42 -5 42 -16 0 -10 -10 -15
-28 -15 -37 0 -65 -21 -60 -46 3 -16 12 -19 62 -20 32 -1 53 1 48 5 -6 3 -12
26 -14 50 -3 49 -23 63 -68 50z m60 -62 c0 -21 -22 -37 -52 -37 -21 0 -28 5
-28 19 0 22 13 29 53 30 16 1 27 -4 27 -12z"/>
<path d="M1840 6085 c0 -8 5 -15 10 -15 6 0 10 7 10 15 0 8 -4 15 -10 15 -5 0
-10 -7 -10 -15z"/>
<path d="M2171 6084 c0 -11 3 -14 6 -6 3 7 2 16 -1 19 -3 4 -6 -2 -5 -13z"/>
<path d="M1503 6073 c27 -4 28 -5 25 -66 -3 -56 -5 -62 -28 -68 -17 -5 -7 -7
30 -7 30 1 45 3 33 5 -21 4 -23 10 -23 68 0 58 2 64 23 68 12 2 -3 4 -33 4
-30 0 -42 -2 -27 -4z"/>
<path d="M1680 6040 c-6 -4 -22 -6 -34 -4 -11 2 -15 2 -8 -2 7 -3 12 -24 12
-49 0 -25 -5 -45 -12 -48 -7 -3 1 -6 17 -6 20 0 26 2 17 8 -8 5 -12 23 -10 47
3 36 5 39 33 39 29 0 30 -1 30 -48 0 -40 3 -47 20 -47 13 0 16 3 8 8 -6 4 -13
27 -15 51 -2 34 -8 46 -24 51 -11 5 -27 5 -34 0z"/>
<path d="M2000 6043 c-39 -14 -53 -69 -24 -97 20 -21 78 -20 95 1 13 15 12 15
-8 5 -47 -25 -93 -9 -93 33 0 28 19 45 50 45 14 0 31 -5 38 -12 9 -9 12 -8 12
5 0 9 -6 17 -14 17 -8 0 -20 2 -28 4 -7 3 -20 2 -28 -1z"/>
<path d="M2309 6036 c-17 -8 -25 -22 -27 -44 -4 -43 12 -62 54 -62 25 0 38 7
51 26 15 23 15 29 2 52 -18 32 -50 44 -80 28z m71 -26 c6 -12 8 -30 5 -40 -7
-24 -52 -37 -74 -23 -20 13 -26 50 -11 69 19 21 67 18 80 -6z"/>
<path d="M1828 6033 c19 -4 22 -11 22 -48 0 -40 -2 -44 -27 -48 -16 -2 -1 -4
32 -4 33 0 48 2 33 4 -26 4 -28 8 -28 54 0 47 -1 49 -27 48 -24 -2 -25 -2 -5
-6z"/>
<path d="M2148 6033 c19 -4 22 -11 22 -48 0 -40 -2 -44 -27 -48 -16 -2 -1 -4
32 -4 33 0 48 2 33 4 -26 4 -28 8 -28 54 0 47 -1 49 -27 48 -24 -2 -25 -2 -5
-6z"/>
<path d="M2480 6025 c0 -10 7 -15 18 -13 21 4 19 22 -2 26 -10 2 -16 -3 -16
-13z"/>
<path d="M2480 5946 c0 -10 9 -16 21 -16 24 0 21 23 -4 28 -10 2 -17 -3 -17
-12z"/>
<path d="M2171 5754 c0 -11 3 -14 6 -6 3 7 2 16 -1 19 -3 4 -6 -2 -5 -13z"/>
<path d="M2760 5749 c-12 -9 -11 -10 8 -6 21 5 22 2 22 -63 0 -63 -2 -69 -22
-73 -13 -2 2 -4 32 -4 30 0 43 2 28 4 -28 4 -28 5 -28 79 0 76 -7 87 -40 63z"/>
<path d="M2441 5708 c-11 -21 -11 -30 0 -49 11 -20 14 -21 17 -6 3 13 13 17
42 17 21 0 42 5 45 10 4 6 -11 10 -39 10 -38 0 -45 3 -48 22 -3 21 -3 21 -17
-4z"/>
<path d="M2148 5703 c19 -4 22 -11 22 -48 0 -40 -2 -44 -27 -48 -16 -2 -1 -4
32 -4 33 0 48 2 33 4 -26 4 -28 8 -28 54 0 47 -1 49 -27 48 -24 -2 -25 -2 -5
-6z"/>
<path d="M2651 5434 c0 -11 3 -14 6 -6 3 7 2 16 -1 19 -3 4 -6 -2 -5 -13z"/>
<path d="M2118 5423 c8 -3 12 -27 12 -68 0 -41 -4 -65 -12 -68 -7 -3 3 -5 22
-5 19 0 27 2 18 5 -12 3 -18 14 -18 34 0 41 32 38 67 -6 37 -46 52 -45 17 1
-25 33 -26 37 -11 46 23 12 22 45 -2 58 -11 5 -39 10 -63 9 -24 0 -37 -3 -30
-6z m92 -18 c18 -21 -4 -45 -41 -45 -26 0 -29 4 -29 30 0 26 3 30 29 30 16 0
34 -7 41 -15z"/>
<path d="M2781 5413 c0 -12 -9 -24 -18 -26 -16 -4 -16 -5 -1 -6 13 -1 18 -12
20 -48 3 -46 4 -48 37 -51 18 -2 37 0 42 5 4 4 -9 8 -29 8 -36 0 -37 1 -40 42
-3 42 -3 42 35 46 l38 4 -37 1 c-29 2 -37 6 -41 25 -4 22 -4 22 -6 0z"/>
<path d="M2308 5386 c-29 -14 -36 -66 -13 -90 17 -16 80 -22 89 -8 2 4 -11 6
-30 4 -33 -4 -64 10 -64 29 0 5 22 9 49 9 57 0 66 8 46 37 -19 26 -47 34 -77
19z m70 -28 c3 -15 -4 -18 -42 -18 -32 0 -46 4 -46 13 0 22 12 28 50 25 24 -2
36 -9 38 -20z"/>
<path d="M2496 5393 c-3 -3 -20 -6 -38 -6 -18 1 -27 -1 -20 -4 8 -3 12 -28 12
-73 0 -45 -4 -70 -12 -73 -7 -3 3 -5 22 -5 19 0 27 2 18 5 -12 3 -18 14 -18
34 0 27 2 28 25 17 19 -9 29 -8 50 6 27 18 35 66 13 83 -19 14 -45 22 -52 16z
m44 -28 c16 -19 5 -61 -18 -67 -31 -8 -62 9 -62 35 0 13 5 28 12 35 17 17 53
15 68 -3z"/>
<path d="M2955 5389 c-15 -6 -12 -8 18 -8 45 -1 55 -31 9 -31 -37 0 -65 -21
-60 -46 3 -16 12 -19 62 -20 32 -1 53 1 48 5 -6 3 -12 26 -14 50 -3 48 -25 65
-63 50z m55 -68 c0 -28 -60 -45 -75 -21 -11 18 15 40 46 40 22 0 29 -5 29 -19z"/>
<path d="M2633 5383 c13 -3 17 -15 17 -48 0 -40 -2 -44 -27 -48 -16 -2 -1 -4
32 -4 33 0 48 2 33 4 -26 4 -28 8 -28 54 0 45 -2 49 -22 48 -17 -1 -19 -2 -5
-6z"/>
<path d="M3127 5384 c-9 -10 2 -24 19 -24 8 0 14 7 14 15 0 15 -21 21 -33 9z"/>
<path d="M3127 5304 c-9 -10 2 -24 19 -24 8 0 14 7 14 15 0 15 -21 21 -33 9z"/>
<path d="M3130 5105 c0 -8 5 -15 10 -15 6 0 10 7 10 15 0 8 -4 15 -10 15 -5 0
-10 -7 -10 -15z"/>
<path d="M4420 5106 c0 -9 5 -16 10 -16 6 0 10 4 10 9 0 6 -4 13 -10 16 -5 3
-10 -1 -10 -9z"/>
<path d="M5710 5106 c0 -9 5 -16 10 -16 6 0 10 4 10 9 0 6 -4 13 -10 16 -5 3
-10 -1 -10 -9z"/>
<path d="M6030 5105 c0 -8 5 -15 10 -15 6 0 10 7 10 15 0 8 -4 15 -10 15 -5 0
-10 -7 -10 -15z"/>
<path d="M6361 5104 c0 -11 3 -14 6 -6 3 7 2 16 -1 19 -3 4 -6 -2 -5 -13z"/>
<path d="M3485 5086 c-9 -13 -17 -42 -18 -63 -1 -40 19 -103 34 -103 4 0 1 16
-7 35 -7 19 -14 46 -14 60 0 14 7 41 14 60 17 41 13 45 -9 11z"/>
<path d="M6650 5104 c0 -3 5 -14 11 -26 14 -26 14 -101 -1 -128 -6 -12 -9 -24
-7 -27 10 -9 37 56 37 87 0 30 -24 100 -34 100 -4 0 -6 -3 -6 -6z"/>
<path d="M2773 5093 c14 -4 17 -16 17 -68 0 -52 -3 -64 -17 -68 -10 -3 12 -5
50 -6 l67 -1 0 31 c0 17 -4 28 -10 24 -5 -3 -10 -15 -10 -26 0 -15 -7 -19 -35
-19 l-35 0 0 64 c0 53 3 65 18 69 9 3 -1 5 -23 5 -22 0 -32 -2 -22 -5z"/>
<path d="M2949 5056 c-30 -15 -37 -60 -13 -87 18 -20 69 -25 93 -10 10 6 0 8
-27 4 -27 -4 -47 -1 -57 7 -27 22 -16 30 40 30 37 0 55 4 55 13 -1 36 -54 62
-91 43z m70 -19 c6 -8 8 -17 4 -20 -9 -10 -93 -9 -93 1 0 30 68 44 89 19z"/>
<path d="M3280 5060 c-22 -6 -20 -8 14 -11 51 -5 61 -29 13 -29 -32 0 -67 -20
-67 -38 1 -23 21 -31 75 -30 32 1 54 3 47 6 -7 2 -12 20 -12 40 0 57 -22 75
-70 62z m55 -60 c11 -17 -15 -40 -46 -40 -35 0 -48 19 -24 37 22 16 61 17 70
3z"/>
<path d="M3602 5059 c-35 -13 -48 -53 -28 -84 13 -20 25 -25 56 -25 21 0 41 4
45 9 3 6 -9 7 -30 4 -34 -5 -65 8 -65 28 0 5 23 9 50 9 42 0 50 3 50 19 0 32
-41 54 -78 40z m52 -15 c9 -3 16 -12 16 -20 0 -10 -13 -14 -45 -14 -43 0 -58
14 -38 33 8 9 46 9 67 1z"/>
<path d="M3780 5060 c-8 -5 -22 -7 -30 -5 -12 4 -14 -4 -11 -41 2 -32 -1 -49
-10 -55 -10 -6 -4 -8 16 -8 17 0 24 3 18 6 -16 6 -17 65 -1 81 17 17 55 15 62
-4 10 -27 7 -72 -6 -77 -7 -3 -4 -6 7 -6 19 -1 20 3 15 45 -6 52 -33 81 -60
64z"/>
<path d="M3918 5056 c-29 -14 -36 -66 -13 -90 17 -16 80 -22 89 -8 2 4 -11 6
-30 4 -33 -4 -64 10 -64 29 0 5 22 9 49 9 57 0 66 8 46 37 -19 26 -47 34 -77
19z m70 -28 c3 -15 -4 -18 -42 -18 -32 0 -46 4 -46 13 0 22 12 28 50 25 24 -2
36 -9 38 -20z"/>
<path d="M4239 5057 c-36 -18 -39 -70 -4 -93 21 -13 31 -15 50 -6 22 10 25 9
25 -6 0 -25 -19 -42 -49 -43 -23 -2 -24 -2 -4 -6 12 -2 31 1 42 7 18 9 21 20
21 75 0 41 4 65 13 69 6 4 1 4 -12 2 -13 -3 -32 -1 -41 4 -10 5 -25 4 -41 -3z
m59 -19 c29 -29 -7 -82 -49 -71 -24 7 -36 48 -19 68 15 18 51 20 68 3z"/>
<path d="M4570 5060 c-22 -6 -20 -8 14 -11 51 -5 61 -29 13 -29 -32 0 -67 -20
-67 -38 1 -23 21 -31 75 -30 32 1 54 3 47 6 -7 2 -12 20 -12 40 0 57 -22 75
-70 62z m55 -60 c11 -17 -15 -40 -46 -40 -35 0 -48 19 -24 37 22 16 61 17 70
3z"/>
<path d="M4905 5060 c-11 -5 -31 -6 -45 -4 -14 2 -19 1 -12 -2 8 -4 12 -29 12
-74 0 -45 -4 -70 -12 -73 -7 -3 5 -5 27 -5 22 0 30 3 18 5 -18 3 -23 11 -23
34 0 33 0 33 34 18 20 -10 30 -9 51 5 54 35 11 119 -50 96z m53 -22 c19 -19
14 -46 -12 -63 -42 -27 -89 13 -66 56 12 22 59 26 78 7z"/>
<path d="M5051 5058 c-34 -12 -22 -40 24 -52 52 -15 54 -40 3 -44 -22 -2 -38
1 -38 7 0 6 -4 11 -10 11 -5 0 -10 -6 -10 -13 0 -19 83 -22 99 -4 18 22 4 43
-37 53 -20 5 -37 14 -37 19 0 16 57 18 66 3 7 -10 9 -9 9 3 0 20 -38 29 -69
17z"/>
<path d="M5371 5058 c-34 -12 -22 -40 24 -52 23 -7 40 -18 40 -26 0 -19 -51
-26 -71 -9 -11 9 -14 8 -14 -5 0 -12 10 -16 38 -16 46 0 65 12 60 36 -2 11
-17 22 -41 29 -21 6 -39 15 -40 20 -3 16 55 18 64 3 7 -10 9 -9 9 3 0 20 -38
29 -69 17z"/>
<path d="M5870 5060 c-6 -4 -22 -6 -34 -4 -11 2 -15 2 -8 -2 7 -3 12 -24 12
-49 0 -25 -5 -45 -12 -48 -7 -3 1 -6 17 -6 20 0 26 2 17 8 -8 5 -12 23 -10 47
3 36 5 39 33 39 29 0 30 -1 30 -48 0 -40 3 -47 20 -47 13 0 16 3 8 8 -6 4 -13
27 -15 51 -2 34 -8 46 -24 51 -11 5 -27 5 -34 0z"/>
<path d="M6190 5063 c-39 -14 -53 -69 -24 -97 20 -21 78 -20 95 1 13 15 12 15
-8 5 -47 -25 -93 -9 -93 33 0 28 19 45 50 45 14 0 31 -5 38 -12 9 -9 12 -8 12
5 0 9 -6 17 -14 17 -8 0 -20 2 -28 4 -7 3 -20 2 -28 -1z"/>
<path d="M6499 5056 c-17 -8 -25 -22 -27 -44 -4 -43 12 -62 54 -62 25 0 38 7
51 26 15 23 15 29 2 52 -18 32 -50 44 -80 28z m71 -26 c6 -12 8 -30 5 -40 -7
-24 -52 -37 -74 -23 -20 13 -26 50 -11 69 19 21 67 18 80 -6z"/>
<path d="M3118 5053 c19 -4 22 -11 22 -48 0 -40 -2 -44 -27 -48 -16 -2 -1 -4
32 -4 33 0 48 2 33 4 -26 4 -28 8 -28 54 0 47 -1 49 -27 48 -24 -2 -25 -2 -5
-6z"/>
<path d="M4073 5053 c13 -3 17 -15 17 -48 0 -37 -3 -44 -22 -48 -13 -2 2 -4
32 -4 30 0 42 2 27 4 -26 4 -28 8 -25 41 3 32 8 39 38 49 31 10 32 12 10 12
-15 1 -31 -4 -38 -11 -9 -9 -12 -9 -12 0 0 7 -10 11 -22 11 -17 -1 -19 -2 -5
-6z"/>
<path d="M4408 5053 c20 -4 23 -10 20 -46 -2 -34 -7 -42 -28 -48 -16 -5 -4 -7
35 -7 33 1 48 3 33 5 -26 4 -28 8 -28 54 0 47 -1 49 -27 48 -25 -2 -25 -2 -5
-6z"/>
<path d="M5176 5052 c6 -4 21 -27 33 -51 28 -54 22 -88 -17 -94 -17 -3 -11 -4
18 -5 28 -1 40 2 32 7 -11 6 -6 23 22 80 36 70 36 71 14 71 -16 0 -19 -3 -10
-9 11 -6 10 -15 -4 -44 -10 -21 -21 -37 -24 -37 -3 0 -14 16 -24 37 -14 29
-15 38 -4 44 9 6 3 9 -17 9 -16 0 -25 -4 -19 -8z"/>
<path d="M5698 5053 c20 -4 23 -10 20 -46 -2 -34 -7 -42 -28 -48 -16 -5 -4 -7
35 -7 33 1 48 3 33 5 -26 4 -28 8 -28 54 0 47 -1 49 -27 48 -25 -2 -25 -2 -5
-6z"/>
<path d="M6018 5053 c19 -4 22 -11 22 -48 0 -40 -2 -44 -27 -48 -16 -2 -1 -4
32 -4 33 0 48 2 33 4 -26 4 -28 8 -28 54 0 47 -1 49 -27 48 -24 -2 -25 -2 -5
-6z"/>
<path d="M6338 5053 c19 -4 22 -11 22 -48 0 -40 -2 -44 -27 -48 -16 -2 -1 -4
32 -4 33 0 48 2 33 4 -26 4 -28 8 -28 54 0 47 -1 49 -27 48 -24 -2 -25 -2 -5
-6z"/>
<path d="M4713 4923 c26 -2 67 -2 90 0 23 2 2 3 -48 3 -49 0 -68 -1 -42 -3z"/>
<path d="M5518 4923 c23 -2 61 -2 85 0 23 2 4 4 -43 4 -47 0 -66 -2 -42 -4z"/>
<path d="M3130 4785 c0 -8 5 -15 10 -15 6 0 10 7 10 15 0 8 -4 15 -10 15 -5 0
-10 -7 -10 -15z"/>
<path d="M4420 4786 c0 -9 5 -16 10 -16 6 0 10 4 10 9 0 6 -4 13 -10 16 -5 3
-10 -1 -10 -9z"/>
<path d="M5710 4786 c0 -9 5 -16 10 -16 6 0 10 4 10 9 0 6 -4 13 -10 16 -5 3
-10 -1 -10 -9z"/>
<path d="M6030 4785 c0 -8 5 -15 10 -15 6 0 10 7 10 15 0 8 -4 15 -10 15 -5 0
-10 -7 -10 -15z"/>
<path d="M6361 4784 c0 -11 3 -14 6 -6 3 7 2 16 -1 19 -3 4 -6 -2 -5 -13z"/>
<path d="M3485 4766 c-9 -13 -17 -42 -18 -63 -1 -40 19 -103 34 -103 4 0 1 16
-7 35 -7 19 -14 46 -14 60 0 14 7 41 14 60 17 41 13 45 -9 11z"/>
<path d="M4948 4783 c6 -2 12 -18 12 -34 0 -29 0 -29 -25 -13 -23 15 -27 15
-49 0 -33 -21 -41 -52 -22 -81 18 -27 63 -34 84 -13 9 9 12 9 12 0 0 -7 8 -12
18 -11 10 0 12 3 5 6 -9 3 -13 29 -13 79 0 64 -2 74 -17 73 -11 0 -13 -3 -5
-6z m5 -75 c18 -28 -7 -68 -43 -68 -38 0 -59 35 -40 69 14 27 67 26 83 -1z"/>
<path d="M6650 4784 c0 -3 5 -14 11 -26 14 -26 14 -101 -1 -128 -6 -12 -9 -24
-7 -27 10 -9 37 56 37 87 0 30 -24 100 -34 100 -4 0 -6 -3 -6 -6z"/>
<path d="M2773 4773 c14 -4 17 -16 17 -68 0 -52 -3 -64 -17 -68 -10 -3 12 -5
50 -6 l67 -1 0 31 c0 17 -4 28 -10 24 -5 -3 -10 -15 -10 -26 0 -15 -7 -19 -35
-19 l-35 0 0 64 c0 53 3 65 18 69 9 3 -1 5 -23 5 -22 0 -32 -2 -22 -5z"/>
<path d="M2949 4736 c-30 -15 -37 -60 -13 -87 18 -20 69 -25 93 -10 10 6 0 8
-27 4 -27 -4 -47 -1 -57 7 -27 22 -16 30 40 30 37 0 55 4 55 13 -1 36 -54 62
-91 43z m70 -19 c6 -8 8 -17 4 -20 -9 -10 -93 -9 -93 1 0 30 68 44 89 19z"/>
<path d="M3280 4740 c-22 -6 -20 -8 14 -11 51 -5 61 -29 13 -29 -32 0 -67 -20
-67 -38 1 -23 21 -31 75 -30 32 1 54 3 47 6 -7 2 -12 20 -12 40 0 57 -22 75
-70 62z m55 -60 c11 -17 -15 -40 -46 -40 -35 0 -48 19 -24 37 22 16 61 17 70
3z"/>
<path d="M3602 4739 c-35 -13 -48 -53 -28 -84 13 -20 25 -25 56 -25 21 0 41 4
45 9 3 6 -9 7 -30 4 -34 -5 -65 8 -65 28 0 5 23 9 50 9 42 0 50 3 50 19 0 32
-41 54 -78 40z m52 -15 c9 -3 16 -12 16 -20 0 -10 -13 -14 -45 -14 -43 0 -58
14 -38 33 8 9 46 9 67 1z"/>
<path d="M3780 4740 c-8 -5 -22 -7 -30 -5 -12 4 -14 -4 -11 -41 2 -32 -1 -49
-10 -55 -10 -6 -4 -8 16 -8 17 0 24 3 18 6 -16 6 -17 65 -1 81 17 17 55 15 62
-4 10 -27 7 -72 -6 -77 -7 -3 -4 -6 7 -6 19 -1 20 3 15 45 -6 52 -33 81 -60
64z"/>
<path d="M3918 4736 c-29 -14 -36 -66 -13 -90 17 -16 80 -22 89 -8 2 4 -11 6
-30 4 -33 -4 -64 10 -64 29 0 5 22 9 49 9 57 0 66 8 46 37 -19 26 -47 34 -77
19z m70 -28 c3 -15 -4 -18 -42 -18 -32 0 -46 4 -46 13 0 22 12 28 50 25 24 -2
36 -9 38 -20z"/>
<path d="M4239 4737 c-36 -18 -39 -70 -4 -93 21 -13 31 -15 50 -6 22 10 25 9
25 -6 0 -25 -19 -42 -49 -43 -23 -2 -24 -2 -4 -6 12 -2 31 1 42 7 18 9 21 20
21 75 0 41 4 65 13 69 6 4 1 4 -12 2 -13 -3 -32 -1 -41 4 -10 5 -25 4 -41 -3z
m59 -19 c29 -29 -7 -82 -49 -71 -24 7 -36 48 -19 68 15 18 51 20 68 3z"/>
<path d="M4570 4740 c-22 -6 -20 -8 14 -11 51 -5 61 -29 13 -29 -32 0 -67 -20
-67 -38 1 -23 21 -31 75 -30 32 1 54 3 47 6 -7 2 -12 20 -12 40 0 57 -22 75
-70 62z m55 -60 c11 -17 -15 -40 -46 -40 -35 0 -48 19 -24 37 22 16 61 17 70
3z"/>
<path d="M5210 4739 c-21 -6 -17 -7 18 -8 30 -1 42 -5 42 -16 0 -10 -10 -15
-28 -15 -37 0 -65 -21 -60 -46 3 -16 12 -19 62 -20 32 -1 53 1 48 5 -6 3 -12
26 -14 50 -3 49 -23 63 -68 50z m60 -62 c0 -21 -22 -37 -52 -37 -21 0 -28 5
-28 19 0 22 13 29 53 30 16 1 27 -4 27 -12z"/>
<path d="M5345 4739 c-16 -3 -24 -7 -17 -8 7 -1 12 -17 12 -45 0 -26 -5 -46
-12 -49 -7 -3 -4 -6 7 -6 17 -1 20 5 20 46 0 37 4 48 18 51 14 3 17 -4 17 -47
0 -42 3 -51 18 -50 10 0 12 3 5 6 -14 5 -17 50 -7 77 3 9 15 16 25 16 16 0 19
-8 19 -50 0 -41 3 -50 18 -50 11 0 13 3 5 8 -6 4 -13 28 -15 52 -3 43 -5 45
-34 46 -17 1 -35 3 -40 6 -5 2 -22 1 -39 -3z"/>
<path d="M5870 4740 c-6 -4 -22 -6 -34 -4 -11 2 -15 2 -8 -2 7 -3 12 -24 12
-49 0 -25 -5 -45 -12 -48 -7 -3 1 -6 17 -6 20 0 26 2 17 8 -8 5 -12 23 -10 47
3 36 5 39 33 39 29 0 30 -1 30 -48 0 -40 3 -47 20 -47 13 0 16 3 8 8 -6 4 -13
27 -15 51 -2 34 -8 46 -24 51 -11 5 -27 5 -34 0z"/>
<path d="M6190 4743 c-39 -14 -53 -69 -24 -97 20 -21 78 -20 95 1 13 15 12 15
-8 5 -47 -25 -93 -9 -93 33 0 28 19 45 50 45 14 0 31 -5 38 -12 9 -9 12 -8 12
5 0 9 -6 17 -14 17 -8 0 -20 2 -28 4 -7 3 -20 2 -28 -1z"/>
<path d="M6499 4736 c-17 -8 -25 -22 -27 -44 -4 -43 12 -62 54 -62 25 0 38 7
51 26 15 23 15 29 2 52 -18 32 -50 44 -80 28z m71 -26 c6 -12 8 -30 5 -40 -7
-24 -52 -37 -74 -23 -20 13 -26 50 -11 69 19 21 67 18 80 -6z"/>
<path d="M3118 4733 c19 -4 22 -11 22 -48 0 -40 -2 -44 -27 -48 -16 -2 -1 -4
32 -4 33 0 48 2 33 4 -26 4 -28 8 -28 54 0 47 -1 49 -27 48 -24 -2 -25 -2 -5
-6z"/>
<path d="M4073 4733 c13 -3 17 -15 17 -48 0 -37 -3 -44 -22 -48 -13 -2 2 -4
32 -4 30 0 42 2 27 4 -26 4 -28 8 -25 41 3 32 8 39 38 49 31 10 32 12 10 12
-15 1 -31 -4 -38 -11 -9 -9 -12 -9 -12 0 0 7 -10 11 -22 11 -17 -1 -19 -2 -5
-6z"/>
<path d="M4408 4733 c20 -4 23 -10 20 -46 -2 -34 -7 -42 -28 -48 -16 -5 -4 -7
35 -7 33 1 48 3 33 5 -26 4 -28 8 -28 54 0 47 -1 49 -27 48 -25 -2 -25 -2 -5
-6z"/>
<path d="M5038 4733 c7 -3 12 -23 12 -48 0 -33 -4 -45 -17 -48 -10 -3 7 -4 37
-4 31 0 41 2 23 4 -28 4 -33 8 -33 32 0 34 32 65 60 58 11 -3 20 -1 20 4 0 12
-37 11 -61 -1 -13 -7 -19 -7 -19 0 0 5 -8 10 -17 9 -11 0 -13 -3 -5 -6z"/>
<path d="M5698 4733 c20 -4 23 -10 20 -46 -2 -34 -7 -42 -28 -48 -16 -5 -4 -7
35 -7 33 1 48 3 33 5 -26 4 -28 8 -28 54 0 47 -1 49 -27 48 -25 -2 -25 -2 -5
-6z"/>
<path d="M6018 4733 c19 -4 22 -11 22 -48 0 -40 -2 -44 -27 -48 -16 -2 -1 -4
32 -4 33 0 48 2 33 4 -26 4 -28 8 -28 54 0 47 -1 49 -27 48 -24 -2 -25 -2 -5
-6z"/>
<path d="M6338 4733 c19 -4 22 -11 22 -48 0 -40 -2 -44 -27 -48 -16 -2 -1 -4
32 -4 33 0 48 2 33 4 -26 4 -28 8 -28 54 0 47 -1 49 -27 48 -24 -2 -25 -2 -5
-6z"/>
<path d="M4713 4603 c26 -2 67 -2 90 0 23 2 2 3 -48 3 -49 0 -68 -1 -42 -3z"/>
<path d="M5518 4603 c23 -2 61 -2 85 0 23 2 4 4 -43 4 -47 0 -66 -2 -42 -4z"/>
<path d="M6844 4129 c-19 -22 -19 -22 4 -8 12 8 22 17 22 21 0 12 -6 9 -26
-13z"/>
<path d="M3966 4111 c-20 -38 -20 -93 -1 -131 23 -44 25 -37 7 19 -14 46 -14
53 1 92 20 51 15 64 -7 20z"/>
<path d="M5108 4133 c6 -2 12 -18 12 -34 0 -29 0 -29 -25 -13 -23 15 -27 15
-49 0 -33 -21 -41 -52 -22 -81 18 -27 63 -34 84 -13 9 9 12 9 12 0 0 -7 8 -12
18 -11 10 0 12 3 5 6 -9 3 -13 29 -13 79 0 64 -2 74 -17 73 -11 0 -13 -3 -5
-6z m5 -75 c18 -28 -7 -68 -43 -68 -38 0 -59 35 -40 69 14 27 67 26 83 -1z"/>
<path d="M5588 4133 c6 -2 12 -15 12 -29 0 -20 -3 -22 -22 -15 -41 15 -78 -12
-78 -55 0 -38 25 -53 88 -52 31 0 51 3 45 5 -9 3 -13 29 -13 79 0 70 -1 74
-22 73 -13 0 -17 -3 -10 -6z m0 -65 c7 -7 12 -21 12 -33 0 -12 -5 -26 -12 -33
-7 -7 -21 -12 -33 -12 -12 0 -26 5 -33 12 -7 7 -12 21 -12 33 0 12 5 26 12 33
7 7 21 12 33 12 12 0 26 -5 33 -12z"/>
<path d="M6178 4133 c20 -4 22 -10 22 -73 0 -67 -1 -69 -27 -73 -16 -2 -1 -4
32 -4 33 0 48 2 33 4 -28 4 -28 5 -28 79 l0 74 -27 -1 c-24 -2 -25 -2 -5 -6z"/>
<path d="M7627 4120 c11 -33 10 -119 0 -150 l-9 -25 17 23 c28 38 30 93 6 138
-12 21 -18 28 -14 14z"/>
<path d="M2758 4123 c8 -3 12 -27 12 -68 0 -41 -4 -65 -12 -68 -7 -3 17 -6 55
-6 67 -1 67 -1 66 27 -2 24 -2 24 -6 4 -4 -20 -9 -23 -46 -20 -38 3 -42 6 -45
32 -3 26 -1 28 22 24 21 -4 26 -1 26 16 0 16 -2 18 -9 7 -13 -21 -41 -5 -41
24 0 22 4 25 39 25 29 0 41 -5 44 -17 4 -14 5 -12 6 5 1 21 -3 22 -61 21 -35
0 -57 -3 -50 -6z"/>
<path d="M6971 4113 c0 -12 -9 -24 -18 -26 -16 -4 -16 -5 -1 -6 13 -1 18 -12
20 -48 3 -46 4 -48 37 -51 18 -2 37 0 42 5 4 4 -9 8 -29 8 -36 0 -37 1 -40 42
-3 42 -3 42 35 46 l38 4 -37 1 c-29 2 -37 6 -41 25 -4 22 -4 22 -6 0z"/>
<path d="M3580 4106 c0 -8 -6 -17 -12 -19 -10 -4 -10 -6 0 -6 7 -1 12 -16 12
-39 0 -21 5 -43 12 -50 13 -13 74 -16 82 -4 2 4 -13 6 -35 4 l-39 -4 0 45 c0
44 1 46 33 50 l32 4 -32 1 c-22 1 -33 7 -33 17 0 8 -4 15 -10 15 -5 0 -10 -6
-10 -14z"/>
<path d="M4108 4087 l-58 -33 60 -32 c70 -39 82 -35 15 4 -25 14 -45 28 -45
30 0 2 20 15 45 30 25 14 45 28 45 30 0 6 -2 5 -62 -29z"/>
<path d="M7440 4112 c0 -4 21 -18 47 -31 l47 -23 -39 -24 c-22 -13 -43 -24
-47 -24 -5 0 -8 -4 -8 -9 0 -5 25 5 56 21 31 17 52 34 47 38 -21 18 -103 60
-103 52z"/>
<path d="M3115 4088 c-63 -35 -38 -108 38 -108 20 0 38 4 41 9 4 5 -11 7 -32
4 -29 -4 -43 -1 -57 13 -18 19 -17 19 38 22 47 2 57 6 57 21 0 34 -52 58 -85
39z m63 -20 c21 -21 13 -28 -31 -28 -50 0 -62 7 -46 27 14 16 61 17 77 1z"/>
<path d="M3279 4086 c-27 -13 -38 -68 -18 -92 13 -16 85 -19 94 -5 3 6 -9 7
-30 4 -40 -6 -65 9 -65 41 0 29 18 46 50 46 14 0 31 -5 38 -12 9 -9 12 -8 12
7 0 10 -3 16 -6 12 -3 -3 -16 -2 -29 3 -14 5 -31 4 -46 -4z"/>
<path d="M3758 4086 c-29 -14 -36 -66 -13 -90 17 -16 80 -22 89 -8 2 4 -11 6
-30 4 -33 -4 -64 10 -64 29 0 5 22 9 49 9 57 0 66 8 46 37 -19 26 -47 34 -77
19z m70 -28 c3 -15 -4 -18 -42 -18 -32 0 -46 4 -46 13 0 22 12 28 50 25 24 -2
36 -9 38 -20z"/>
<path d="M4251 4088 c-12 -4 -26 -19 -32 -32 -17 -36 10 -76 50 -76 37 0 61 9
61 23 0 7 -4 7 -12 -1 -13 -13 -57 -16 -74 -4 -17 11 -22 35 -13 60 6 17 16
22 44 22 19 0 35 -4 35 -10 0 -5 5 -10 10 -10 6 0 10 6 10 14 0 16 -49 25 -79
14z"/>
<path d="M4397 4079 c-31 -24 -35 -59 -9 -82 38 -35 102 -12 102 37 0 52 -52
78 -93 45z m71 -11 c16 -16 15 -53 -2 -67 -8 -7 -27 -11 -43 -9 -34 4 -54 47
-33 72 15 19 61 21 78 4z"/>
<path d="M4730 4090 c-22 -6 -20 -8 14 -11 51 -5 61 -29 13 -29 -32 0 -67 -20
-67 -38 1 -23 21 -31 75 -30 32 1 54 3 47 6 -7 2 -12 20 -12 40 0 57 -22 75
-70 62z m55 -60 c11 -17 -15 -40 -46 -40 -35 0 -48 19 -24 37 22 16 61 17 70
3z"/>
<path d="M4916 4093 c-3 -3 -20 -6 -38 -6 -18 1 -27 -1 -20 -4 7 -3 12 -23 12
-48 0 -25 -5 -45 -12 -48 -7 -3 1 -6 17 -6 20 0 26 2 17 8 -8 5 -12 23 -10 47
3 36 5 39 37 42 l33 3 -3 -50 c-4 -46 -2 -51 16 -50 11 0 14 3 8 6 -8 3 -13
23 -13 48 0 33 -5 47 -19 54 -10 6 -21 8 -25 4z"/>
<path d="M5220 4092 c-39 -12 -53 -68 -24 -96 34 -35 104 -8 104 41 0 32 -48
65 -80 55z m61 -33 c17 -33 -3 -69 -39 -69 -33 0 -52 16 -52 45 0 29 19 45 52
45 18 0 31 -7 39 -21z"/>
<path d="M5687 4079 c-31 -24 -35 -59 -9 -82 38 -35 102 -12 102 37 0 52 -52
78 -93 45z m71 -11 c16 -16 15 -53 -2 -67 -8 -7 -27 -11 -43 -9 -34 4 -54 47
-33 72 15 19 61 21 78 4z"/>
<path d="M6020 4090 c-22 -6 -20 -8 14 -11 51 -5 61 -29 13 -29 -32 0 -67 -20
-67 -38 1 -23 21 -31 75 -30 32 1 54 3 47 6 -7 2 -12 20 -12 40 0 57 -22 75
-70 62z m55 -60 c11 -17 -15 -40 -46 -40 -35 0 -48 19 -24 37 22 16 61 17 70
3z"/>
<path d="M6499 4086 c-17 -8 -25 -22 -27 -44 -4 -43 12 -62 54 -62 25 0 38 7
51 26 15 23 15 29 2 52 -18 32 -50 44 -80 28z m71 -26 c6 -12 8 -30 5 -40 -7
-24 -52 -37 -74 -23 -20 13 -26 50 -11 69 19 21 67 18 80 -6z"/>
<path d="M7312 4089 c-61 -23 -45 -109 21 -109 41 0 57 15 57 56 0 45 -35 69
-78 53z m58 -23 c15 -19 9 -56 -11 -69 -9 -5 -28 -7 -42 -3 -52 13 -42 86 12
86 16 0 34 -7 41 -14z"/>
<path d="M2947 4066 l28 -24 -29 -31 -30 -31 25 0 c16 0 20 3 11 8 -9 7 -8 13
8 27 19 18 21 18 40 0 16 -14 17 -20 8 -27 -8 -5 -3 -8 15 -8 l29 0 -32 26
-31 27 27 28 c27 29 27 29 5 29 -12 0 -20 -4 -17 -9 3 -5 -1 -14 -9 -21 -12
-10 -18 -10 -30 0 -8 7 -12 16 -9 21 3 5 -4 9 -16 9 -20 0 -19 -2 7 -24z"/>
<path d="M3407 4082 c6 -4 13 -28 15 -52 l3 -45 55 -1 c30 -1 49 0 43 3 -8 3
-13 24 -13 54 0 40 -3 49 -17 48 -11 0 -13 -3 -5 -6 6 -2 12 -22 12 -44 0 -33
-4 -40 -24 -45 -36 -9 -46 2 -46 52 0 35 -3 44 -17 44 -12 0 -14 -3 -6 -8z"/>
<path d="M4525 4035 c0 -48 2 -55 20 -55 15 0 16 3 7 9 -8 5 -12 23 -10 47 2
32 7 40 26 42 20 3 22 0 22 -47 0 -28 3 -51 8 -51 4 0 7 21 7 47 0 41 3 48 20
48 17 0 20 -8 23 -47 2 -27 7 -48 11 -48 7 0 5 39 -4 86 -4 19 -12 21 -67 22
l-63 1 0 -54z"/>
<path d="M6315 4070 c-37 -41 16 -106 66 -79 19 9 20 8 17 -18 -2 -23 -9 -29
-38 -34 -35 -6 -35 -6 -4 -8 43 -2 54 15 54 85 0 41 4 64 13 67 6 2 -11 5 -39
5 -39 1 -55 -3 -69 -18z m83 -27 c4 -38 -25 -60 -57 -44 -47 25 -30 84 22 79
28 -3 32 -7 35 -35z"/>
<path d="M6648 4083 c7 -3 12 -23 12 -48 0 -33 -4 -45 -17 -48 -10 -3 7 -4 37
-4 31 0 41 2 23 4 -28 4 -33 8 -33 32 0 34 32 65 60 58 11 -3 20 -1 20 4 0 13
-44 11 -59 -3 -11 -10 -14 -10 -18 0 -3 6 -12 12 -21 11 -11 0 -12 -2 -4 -6z"/>
<path d="M6823 4083 c13 -3 17 -15 17 -48 0 -40 -2 -44 -27 -48 -16 -2 -1 -4
32 -4 33 0 48 2 33 4 -26 4 -28 8 -28 54 0 45 -2 49 -22 48 -17 -1 -19 -2 -5
-6z"/>
<path d="M7098 4083 c7 -3 12 -22 12 -48 0 -25 -5 -45 -12 -48 -7 -3 1 -6 17
-6 20 0 26 2 17 8 -8 5 -12 23 -10 47 2 31 7 39 23 39 17 0 20 -8 23 -47 4
-62 17 -62 17 -1 0 37 4 48 18 51 14 3 17 -4 17 -47 0 -42 3 -51 18 -50 10 0
12 3 5 6 -8 3 -13 24 -13 53 l0 49 -72 -1 c-40 -1 -67 -3 -60 -5z"/>
<path d="M3130 3485 c0 -8 5 -15 10 -15 6 0 10 7 10 15 0 8 -4 15 -10 15 -5 0
-10 -7 -10 -15z"/>
<path d="M4420 3486 c0 -9 5 -16 10 -16 6 0 10 4 10 9 0 6 -4 13 -10 16 -5 3
-10 -1 -10 -9z"/>
<path d="M5870 3485 c0 -8 5 -15 10 -15 6 0 10 7 10 15 0 8 -4 15 -10 15 -5 0
-10 -7 -10 -15z"/>
<path d="M3485 3466 c-9 -13 -17 -42 -18 -63 -1 -40 19 -103 34 -103 4 0 1 16
-7 35 -7 19 -14 46 -14 60 0 14 7 41 14 60 17 41 13 45 -9 11z"/>
<path d="M5712 3478 c-7 -7 -12 -18 -12 -24 0 -7 -8 -15 -17 -17 -17 -4 -17
-5 0 -6 13 -1 17 -10 17 -45 0 -34 -4 -46 -17 -49 -10 -3 7 -4 37 -4 31 0 41
2 23 4 -32 4 -33 6 -33 48 0 42 1 44 33 48 l32 4 -33 1 c-47 3 -40 35 8 43 35
6 35 6 5 8 -17 0 -36 -4 -43 -11z"/>
<path d="M6177 3470 c11 -33 10 -119 0 -150 l-9 -25 17 23 c28 38 30 93 6 138
-12 21 -18 28 -14 14z"/>
<path d="M2773 3473 c14 -4 17 -16 17 -68 0 -52 -3 -64 -17 -68 -10 -3 12 -5
50 -6 l67 -1 0 31 c0 17 -4 28 -10 24 -5 -3 -10 -15 -10 -26 0 -15 -7 -19 -35
-19 l-35 0 0 64 c0 53 3 65 18 69 9 3 -1 5 -23 5 -22 0 -32 -2 -22 -5z"/>
<path d="M2949 3436 c-30 -15 -37 -60 -13 -87 18 -20 69 -25 93 -10 10 6 0 8
-27 4 -27 -4 -47 -1 -57 7 -27 22 -16 30 40 30 37 0 55 4 55 13 -1 36 -54 62
-91 43z m70 -19 c6 -8 8 -17 4 -20 -9 -10 -93 -9 -93 1 0 30 68 44 89 19z"/>
<path d="M3280 3440 c-22 -6 -20 -8 14 -11 51 -5 61 -29 13 -29 -32 0 -67 -20
-67 -38 1 -23 21 -31 75 -30 32 1 54 3 47 6 -7 2 -12 20 -12 40 0 57 -22 75
-70 62z m55 -60 c11 -17 -15 -40 -46 -40 -35 0 -48 19 -24 37 22 16 61 17 70
3z"/>
<path d="M3602 3439 c-35 -13 -48 -53 -28 -84 13 -20 25 -25 56 -25 21 0 41 4
45 9 3 6 -9 7 -30 4 -34 -5 -65 8 -65 28 0 5 23 9 50 9 42 0 50 3 50 19 0 32
-41 54 -78 40z m52 -15 c9 -3 16 -12 16 -20 0 -10 -13 -14 -45 -14 -43 0 -58
14 -38 33 8 9 46 9 67 1z"/>
<path d="M3780 3440 c-8 -5 -22 -7 -30 -5 -12 4 -14 -4 -11 -41 2 -32 -1 -49
-10 -55 -10 -6 -4 -8 16 -8 17 0 24 3 18 6 -16 6 -17 65 -1 81 17 17 55 15 62
-4 10 -27 7 -72 -6 -77 -7 -3 -4 -6 7 -6 19 -1 20 3 15 45 -6 52 -33 81 -60
64z"/>
<path d="M3918 3436 c-29 -14 -36 -66 -13 -90 17 -16 80 -22 89 -8 2 4 -11 6
-30 4 -33 -4 -64 10 -64 29 0 5 22 9 49 9 57 0 66 8 46 37 -19 26 -47 34 -77
19z m70 -28 c3 -15 -4 -18 -42 -18 -32 0 -46 4 -46 13 0 22 12 28 50 25 24 -2
36 -9 38 -20z"/>
<path d="M4239 3437 c-36 -18 -39 -70 -4 -93 21 -13 31 -15 50 -6 22 10 25 9
25 -6 0 -25 -19 -42 -49 -43 -23 -2 -24 -2 -4 -6 12 -2 31 1 42 7 18 9 21 20
21 75 0 41 4 65 13 69 6 4 1 4 -12 2 -13 -3 -32 -1 -41 4 -10 5 -25 4 -41 -3z
m59 -19 c29 -29 -7 -82 -49 -71 -24 7 -36 48 -19 68 15 18 51 20 68 3z"/>
<path d="M4570 3440 c-22 -6 -20 -8 14 -11 51 -5 61 -29 13 -29 -32 0 -67 -20
-67 -38 1 -23 21 -31 75 -30 32 1 54 3 47 6 -7 2 -12 20 -12 40 0 57 -22 75
-70 62z m55 -60 c11 -17 -15 -40 -46 -40 -35 0 -48 19 -24 37 22 16 61 17 70
3z"/>
<path d="M4905 3440 c-11 -5 -31 -6 -45 -4 -14 2 -19 1 -12 -2 8 -4 12 -29 12
-74 0 -45 -4 -70 -12 -73 -7 -3 5 -5 27 -5 22 0 30 3 18 5 -18 3 -23 11 -23
34 0 33 0 33 34 18 20 -10 30 -9 51 5 54 35 11 119 -50 96z m53 -22 c19 -19
14 -46 -12 -63 -42 -27 -89 13 -66 56 12 22 59 26 78 7z"/>
<path d="M5051 3438 c-34 -12 -22 -40 24 -52 52 -15 54 -40 3 -44 -22 -2 -38
1 -38 7 0 6 -4 11 -10 11 -5 0 -10 -6 -10 -13 0 -19 83 -22 99 -4 18 22 4 43
-37 53 -20 5 -37 14 -37 19 0 16 57 18 66 3 7 -10 9 -9 9 3 0 20 -38 29 -69
17z"/>
<path d="M5371 3438 c-34 -12 -22 -40 24 -52 23 -7 40 -18 40 -26 0 -19 -51
-26 -71 -9 -11 9 -14 8 -14 -5 0 -12 10 -16 38 -16 46 0 65 12 60 36 -2 11
-17 22 -41 29 -21 6 -39 15 -40 20 -3 16 55 18 64 3 7 -10 9 -9 9 3 0 20 -38
29 -69 17z"/>
<path d="M3118 3433 c19 -4 22 -11 22 -48 0 -40 -2 -44 -27 -48 -16 -2 -1 -4
32 -4 33 0 48 2 33 4 -26 4 -28 8 -28 54 0 47 -1 49 -27 48 -24 -2 -25 -2 -5
-6z"/>
<path d="M4073 3433 c13 -3 17 -15 17 -48 0 -37 -3 -44 -22 -48 -13 -2 2 -4
32 -4 30 0 42 2 27 4 -26 4 -28 8 -25 41 3 32 8 39 38 49 31 10 32 12 10 12
-15 1 -31 -4 -38 -11 -9 -9 -12 -9 -12 0 0 7 -10 11 -22 11 -17 -1 -19 -2 -5
-6z"/>
<path d="M4408 3433 c20 -4 23 -10 20 -46 -2 -34 -7 -42 -28 -48 -16 -5 -4 -7
35 -7 33 1 48 3 33 5 -26 4 -28 8 -28 54 0 47 -1 49 -27 48 -25 -2 -25 -2 -5
-6z"/>
<path d="M5176 3432 c6 -4 21 -27 33 -51 28 -54 22 -88 -17 -94 -17 -3 -11 -4
18 -5 28 -1 40 2 32 7 -11 6 -6 23 22 80 36 70 36 71 14 71 -16 0 -19 -3 -10
-9 11 -6 10 -15 -4 -44 -10 -21 -21 -37 -24 -37 -3 0 -14 16 -24 37 -14 29
-15 38 -4 44 9 6 3 9 -17 9 -16 0 -25 -4 -19 -8z"/>
<path d="M5858 3433 c19 -4 22 -11 22 -48 0 -40 -2 -44 -27 -48 -16 -2 -1 -4
32 -4 33 0 48 2 33 4 -26 4 -28 8 -28 54 0 47 -1 49 -27 48 -24 -2 -25 -2 -5
-6z"/>
<path d="M5975 3385 c0 -48 2 -55 20 -55 15 0 16 3 7 9 -8 5 -12 23 -10 47 2
32 7 40 26 42 20 3 22 0 22 -47 0 -28 3 -51 8 -51 4 0 7 21 7 47 0 41 3 48 20
48 17 0 20 -8 23 -47 2 -27 7 -48 11 -48 7 0 5 39 -4 86 -4 19 -12 21 -67 22
l-63 1 0 -54z"/>
<path d="M4713 3303 c26 -2 67 -2 90 0 23 2 2 3 -48 3 -49 0 -68 -1 -42 -3z"/>
<path d="M5518 3303 c23 -2 61 -2 85 0 23 2 4 4 -43 4 -47 0 -66 -2 -42 -4z"/>
<path d="M3130 3165 c0 -8 5 -15 10 -15 6 0 10 7 10 15 0 8 -4 15 -10 15 -5 0
-10 -7 -10 -15z"/>
<path d="M4420 3166 c0 -9 5 -16 10 -16 6 0 10 4 10 9 0 6 -4 13 -10 16 -5 3
-10 -1 -10 -9z"/>
<path d="M5870 3165 c0 -8 5 -15 10 -15 6 0 10 7 10 15 0 8 -4 15 -10 15 -5 0
-10 -7 -10 -15z"/>
<path d="M3485 3146 c-9 -13 -17 -42 -18 -63 -1 -40 19 -103 34 -103 4 0 1 16
-7 35 -7 19 -14 46 -14 60 0 14 7 41 14 60 17 41 13 45 -9 11z"/>
<path d="M4948 3163 c6 -2 12 -18 12 -34 0 -29 0 -29 -25 -13 -23 15 -27 15
-49 0 -33 -21 -41 -52 -22 -81 18 -27 63 -34 84 -13 9 9 12 9 12 0 0 -7 8 -12
18 -11 10 0 12 3 5 6 -9 3 -13 29 -13 79 0 64 -2 74 -17 73 -11 0 -13 -3 -5
-6z m5 -75 c18 -28 -7 -68 -43 -68 -38 0 -59 35 -40 69 14 27 67 26 83 -1z"/>
<path d="M5712 3158 c-7 -7 -12 -18 -12 -24 0 -7 -8 -15 -17 -17 -17 -4 -17
-5 0 -6 13 -1 17 -10 17 -45 0 -34 -4 -46 -17 -49 -10 -3 7 -4 37 -4 31 0 41
2 23 4 -32 4 -33 6 -33 48 0 42 1 44 33 48 l32 4 -33 1 c-47 3 -40 35 8 43 35
6 35 6 5 8 -17 0 -36 -4 -43 -11z"/>
<path d="M6177 3150 c11 -33 10 -119 0 -150 l-9 -25 17 23 c28 38 30 93 6 138
-12 21 -18 28 -14 14z"/>
<path d="M2773 3153 c14 -4 17 -16 17 -68 0 -52 -3 -64 -17 -68 -10 -3 12 -5
50 -6 l67 -1 0 31 c0 17 -4 28 -10 24 -5 -3 -10 -15 -10 -26 0 -15 -7 -19 -35
-19 l-35 0 0 64 c0 53 3 65 18 69 9 3 -1 5 -23 5 -22 0 -32 -2 -22 -5z"/>
<path d="M2949 3116 c-30 -15 -37 -60 -13 -87 18 -20 69 -25 93 -10 10 6 0 8
-27 4 -27 -4 -47 -1 -57 7 -27 22 -16 30 40 30 37 0 55 4 55 13 -1 36 -54 62
-91 43z m70 -19 c6 -8 8 -17 4 -20 -9 -10 -93 -9 -93 1 0 30 68 44 89 19z"/>
<path d="M3280 3120 c-22 -6 -20 -8 14 -11 51 -5 61 -29 13 -29 -32 0 -67 -20
-67 -38 1 -23 21 -31 75 -30 32 1 54 3 47 6 -7 2 -12 20 -12 40 0 57 -22 75
-70 62z m55 -60 c11 -17 -15 -40 -46 -40 -35 0 -48 19 -24 37 22 16 61 17 70
3z"/>
<path d="M3602 3119 c-35 -13 -48 -53 -28 -84 13 -20 25 -25 56 -25 21 0 41 4
45 9 3 6 -9 7 -30 4 -34 -5 -65 8 -65 28 0 5 23 9 50 9 42 0 50 3 50 19 0 32
-41 54 -78 40z m52 -15 c9 -3 16 -12 16 -20 0 -10 -13 -14 -45 -14 -43 0 -58
14 -38 33 8 9 46 9 67 1z"/>
<path d="M3780 3120 c-8 -5 -22 -7 -30 -5 -12 4 -14 -4 -11 -41 2 -32 -1 -49
-10 -55 -10 -6 -4 -8 16 -8 17 0 24 3 18 6 -16 6 -17 65 -1 81 17 17 55 15 62
-4 10 -27 7 -72 -6 -77 -7 -3 -4 -6 7 -6 19 -1 20 3 15 45 -6 52 -33 81 -60
64z"/>
<path d="M3918 3116 c-29 -14 -36 -66 -13 -90 17 -16 80 -22 89 -8 2 4 -11 6
-30 4 -33 -4 -64 10 -64 29 0 5 22 9 49 9 57 0 66 8 46 37 -19 26 -47 34 -77
19z m70 -28 c3 -15 -4 -18 -42 -18 -32 0 -46 4 -46 13 0 22 12 28 50 25 24 -2
36 -9 38 -20z"/>
<path d="M4239 3117 c-36 -18 -39 -70 -4 -93 21 -13 31 -15 50 -6 22 10 25 9
25 -6 0 -25 -19 -42 -49 -43 -23 -2 -24 -2 -4 -6 12 -2 31 1 42 7 18 9 21 20
21 75 0 41 4 65 13 69 6 4 1 4 -12 2 -13 -3 -32 -1 -41 4 -10 5 -25 4 -41 -3z
m59 -19 c29 -29 -7 -82 -49 -71 -24 7 -36 48 -19 68 15 18 51 20 68 3z"/>
<path d="M4570 3120 c-22 -6 -20 -8 14 -11 51 -5 61 -29 13 -29 -32 0 -67 -20
-67 -38 1 -23 21 -31 75 -30 32 1 54 3 47 6 -7 2 -12 20 -12 40 0 57 -22 75
-70 62z m55 -60 c11 -17 -15 -40 -46 -40 -35 0 -48 19 -24 37 22 16 61 17 70
3z"/>
<path d="M5210 3119 c-21 -6 -17 -7 18 -8 30 -1 42 -5 42 -16 0 -10 -10 -15
-28 -15 -37 0 -65 -21 -60 -46 3 -16 12 -19 62 -20 32 -1 53 1 48 5 -6 3 -12
26 -14 50 -3 49 -23 63 -68 50z m60 -62 c0 -21 -22 -37 -52 -37 -21 0 -28 5
-28 19 0 22 13 29 53 30 16 1 27 -4 27 -12z"/>
<path d="M5345 3119 c-16 -3 -24 -7 -17 -8 7 -1 12 -17 12 -45 0 -26 -5 -46
-12 -49 -7 -3 -4 -6 7 -6 17 -1 20 5 20 46 0 37 4 48 18 51 14 3 17 -4 17 -47
0 -42 3 -51 18 -50 10 0 12 3 5 6 -14 5 -17 50 -7 77 3 9 15 16 25 16 16 0 19
-8 19 -50 0 -41 3 -50 18 -50 11 0 13 3 5 8 -6 4 -13 28 -15 52 -3 43 -5 45
-34 46 -17 1 -35 3 -40 6 -5 2 -22 1 -39 -3z"/>
<path d="M3118 3113 c19 -4 22 -11 22 -48 0 -40 -2 -44 -27 -48 -16 -2 -1 -4
32 -4 33 0 48 2 33 4 -26 4 -28 8 -28 54 0 47 -1 49 -27 48 -24 -2 -25 -2 -5
-6z"/>
<path d="M4073 3113 c13 -3 17 -15 17 -48 0 -37 -3 -44 -22 -48 -13 -2 2 -4
32 -4 30 0 42 2 27 4 -26 4 -28 8 -25 41 3 32 8 39 38 49 31 10 32 12 10 12
-15 1 -31 -4 -38 -11 -9 -9 -12 -9 -12 0 0 7 -10 11 -22 11 -17 -1 -19 -2 -5
-6z"/>
<path d="M4408 3113 c20 -4 23 -10 20 -46 -2 -34 -7 -42 -28 -48 -16 -5 -4 -7
35 -7 33 1 48 3 33 5 -26 4 -28 8 -28 54 0 47 -1 49 -27 48 -25 -2 -25 -2 -5
-6z"/>
<path d="M5038 3113 c7 -3 12 -23 12 -48 0 -33 -4 -45 -17 -48 -10 -3 7 -4 37
-4 31 0 41 2 23 4 -28 4 -33 8 -33 32 0 34 32 65 60 58 11 -3 20 -1 20 4 0 12
-37 11 -61 -1 -13 -7 -19 -7 -19 0 0 5 -8 10 -17 9 -11 0 -13 -3 -5 -6z"/>
<path d="M5858 3113 c19 -4 22 -11 22 -48 0 -40 -2 -44 -27 -48 -16 -2 -1 -4
32 -4 33 0 48 2 33 4 -26 4 -28 8 -28 54 0 47 -1 49 -27 48 -24 -2 -25 -2 -5
-6z"/>
<path d="M5975 3065 c0 -48 2 -55 20 -55 15 0 16 3 7 9 -8 5 -12 23 -10 47 2
32 7 40 26 42 20 3 22 0 22 -47 0 -28 3 -51 8 -51 4 0 7 21 7 47 0 41 3 48 20
48 17 0 20 -8 23 -47 2 -27 7 -48 11 -48 7 0 5 39 -4 86 -4 19 -12 21 -67 22
l-63 1 0 -54z"/>
<path d="M4713 2983 c26 -2 67 -2 90 0 23 2 2 3 -48 3 -49 0 -68 -1 -42 -3z"/>
<path d="M5518 2983 c23 -2 61 -2 85 0 23 2 4 4 -43 4 -47 0 -66 -2 -42 -4z"/>
<path d="M3130 2835 c0 -8 5 -15 10 -15 6 0 10 7 10 15 0 8 -4 15 -10 15 -5 0
-10 -7 -10 -15z"/>
<path d="M3485 2816 c-9 -13 -17 -42 -18 -63 -1 -40 19 -103 34 -103 4 0 1 16
-7 35 -7 19 -14 46 -14 60 0 14 7 41 14 60 17 41 13 45 -9 11z"/>
<path d="M5588 2833 c6 -2 12 -15 12 -29 0 -20 -3 -22 -22 -15 -41 15 -78 -12
-78 -55 0 -38 25 -53 88 -52 31 0 51 3 45 5 -9 3 -13 29 -13 79 0 70 -1 74
-22 73 -13 0 -17 -3 -10 -6z m0 -65 c7 -7 12 -21 12 -33 0 -12 -5 -26 -12 -33
-7 -7 -21 -12 -33 -12 -12 0 -26 5 -33 12 -7 7 -12 21 -12 33 0 12 5 26 12 33
7 7 21 12 33 12 12 0 26 -5 33 -12z"/>
<path d="M6497 2820 c11 -33 10 -119 0 -150 l-9 -25 17 23 c28 38 30 93 6 138
-12 21 -18 28 -14 14z"/>
<path d="M2773 2823 c14 -4 17 -16 17 -68 0 -52 -3 -64 -17 -68 -10 -3 12 -5
50 -6 l67 -1 0 31 c0 17 -4 28 -10 24 -5 -3 -10 -15 -10 -26 0 -15 -7 -19 -35
-19 l-35 0 0 64 c0 53 3 65 18 69 9 3 -1 5 -23 5 -22 0 -32 -2 -22 -5z"/>
<path d="M4711 2813 c0 -12 -7 -24 -13 -26 -10 -4 -10 -6 0 -6 7 -1 12 -15 12
-35 0 -56 8 -66 51 -66 21 0 39 3 39 8 0 4 -17 7 -37 7 -37 0 -38 1 -41 42 -3
42 -3 42 35 46 l38 4 -37 1 c-29 2 -37 6 -41 25 -4 22 -4 22 -6 0z"/>
<path d="M3580 2806 c0 -8 -6 -17 -12 -19 -10 -4 -10 -6 0 -6 7 -1 12 -16 12
-39 0 -21 5 -43 12 -50 13 -13 74 -16 82 -4 2 4 -13 6 -35 4 l-39 -4 0 45 c0
44 1 46 33 50 l32 4 -32 1 c-22 1 -33 7 -33 17 0 8 -4 15 -10 15 -5 0 -10 -6
-10 -14z"/>
<path d="M2949 2786 c-30 -15 -37 -60 -13 -87 18 -20 69 -25 93 -10 10 6 0 8
-27 4 -27 -4 -47 -1 -57 7 -27 22 -16 30 40 30 37 0 55 4 55 13 -1 36 -54 62
-91 43z m70 -19 c6 -8 8 -17 4 -20 -9 -10 -93 -9 -93 1 0 30 68 44 89 19z"/>
<path d="M3280 2790 c-22 -6 -20 -8 14 -11 51 -5 61 -29 13 -29 -32 0 -67 -20
-67 -38 1 -23 21 -31 75 -30 32 1 54 3 47 6 -7 2 -12 20 -12 40 0 57 -22 75
-70 62z m55 -60 c11 -17 -15 -40 -46 -40 -35 0 -48 19 -24 37 22 16 61 17 70
3z"/>
<path d="M3758 2786 c-29 -14 -36 -66 -13 -90 17 -16 80 -22 89 -8 2 4 -11 6
-30 4 -33 -4 -64 10 -64 29 0 5 22 9 49 9 57 0 66 8 46 37 -19 26 -47 34 -77
19z m70 -28 c3 -15 -4 -18 -42 -18 -32 0 -46 4 -46 13 0 22 12 28 50 25 24 -2
36 -9 38 -20z"/>
<path d="M3895 2789 c-16 -3 -24 -7 -17 -8 7 -1 12 -17 12 -45 0 -26 -5 -46
-12 -49 -7 -3 -4 -6 7 -6 17 -1 20 5 20 46 0 37 4 48 18 51 14 3 17 -4 17 -47
0 -42 3 -51 18 -50 10 0 12 3 5 6 -14 5 -17 50 -7 77 3 9 15 16 25 16 16 0 19
-8 19 -50 0 -41 3 -50 18 -50 11 0 13 3 5 8 -6 4 -13 28 -15 52 -3 43 -5 45
-34 46 -17 1 -35 3 -40 6 -5 2 -22 1 -39 -3z"/>
<path d="M4106 2792 c-3 -3 -20 -5 -38 -5 -18 1 -27 -1 -20 -4 8 -3 12 -28 12
-73 0 -45 -4 -70 -12 -73 -7 -3 3 -5 22 -5 19 0 27 2 18 5 -12 3 -18 14 -18
34 0 27 2 29 20 19 27 -14 57 -4 76 26 15 22 15 26 1 48 -15 23 -50 39 -61 28z
m49 -51 c0 -41 -30 -58 -64 -35 -41 29 -18 77 34 72 27 -3 30 -7 30 -37z"/>
<path d="M4239 2786 c-30 -15 -37 -60 -13 -87 18 -20 69 -25 93 -10 10 6 0 8
-27 4 -27 -4 -47 -1 -57 7 -27 22 -16 30 40 30 37 0 55 4 55 13 -1 36 -54 62
-91 43z m70 -19 c6 -8 8 -17 4 -20 -9 -10 -93 -9 -93 1 0 30 68 44 89 19z"/>
<path d="M4570 2790 c-22 -6 -20 -8 14 -11 51 -5 61 -29 13 -29 -32 0 -67 -20
-67 -38 1 -23 21 -31 75 -30 32 1 54 3 47 6 -7 2 -12 20 -12 40 0 57 -22 75
-70 62z m55 -60 c11 -17 -15 -40 -46 -40 -35 0 -48 19 -24 37 22 16 61 17 70
3z"/>
<path d="M5210 2789 c-21 -6 -17 -7 18 -8 30 -1 42 -5 42 -16 0 -10 -10 -15
-28 -15 -37 0 -65 -21 -60 -46 3 -16 12 -19 62 -20 32 -1 53 1 48 5 -6 3 -12
26 -14 50 -3 49 -23 63 -68 50z m60 -62 c0 -21 -22 -37 -52 -37 -21 0 -28 5
-28 19 0 22 13 29 53 30 16 1 27 -4 27 -12z"/>
<path d="M5695 2789 c-15 -6 -12 -8 18 -8 45 -1 55 -31 9 -31 -37 0 -65 -21
-60 -46 3 -16 12 -19 62 -20 32 -1 53 1 48 5 -6 3 -12 26 -14 50 -3 48 -25 65
-63 50z m55 -68 c0 -28 -60 -45 -75 -21 -11 18 15 40 46 40 22 0 29 -5 29 -19z"/>
<path d="M6019 2786 c-27 -13 -38 -68 -18 -92 13 -16 85 -19 94 -5 3 6 -9 7
-30 4 -40 -6 -65 9 -65 41 0 29 18 46 50 46 14 0 31 -5 38 -12 9 -9 12 -8 12
7 0 10 -3 16 -6 12 -3 -3 -16 -2 -29 3 -14 5 -31 4 -46 -4z"/>
<path d="M6195 2790 c-11 -5 -31 -6 -45 -4 -14 2 -19 1 -12 -2 8 -4 12 -29 12
-74 0 -45 -4 -70 -12 -73 -7 -3 5 -5 27 -5 22 0 30 3 18 5 -18 3 -23 11 -23
34 0 33 0 33 34 18 20 -10 30 -9 51 5 54 35 11 119 -50 96z m53 -22 c19 -19
14 -46 -12 -63 -42 -27 -89 13 -66 56 12 22 59 26 78 7z"/>
<path d="M3118 2783 c19 -4 22 -11 22 -48 0 -40 -2 -44 -27 -48 -16 -2 -1 -4
32 -4 33 0 48 2 33 4 -26 4 -28 8 -28 54 0 47 -1 49 -27 48 -24 -2 -25 -2 -5
-6z"/>
<path d="M4393 2783 c13 -3 17 -15 17 -48 0 -37 -3 -44 -22 -48 -13 -2 2 -4
32 -4 30 0 42 2 27 4 -26 4 -28 8 -25 41 3 32 8 39 38 49 31 10 32 12 10 12
-15 1 -31 -4 -38 -11 -9 -9 -12 -9 -12 0 0 7 -10 11 -22 11 -17 -1 -19 -2 -5
-6z"/>
<path d="M4857 2782 c6 -4 13 -28 15 -52 l3 -45 55 -1 c30 -1 49 0 43 3 -8 3
-13 24 -13 54 0 40 -3 49 -17 48 -11 0 -13 -3 -5 -6 6 -2 12 -22 12 -44 0 -33
-4 -40 -24 -45 -36 -9 -46 2 -46 52 0 35 -3 44 -17 44 -12 0 -14 -3 -6 -8z"/>
<path d="M5038 2783 c7 -3 12 -23 12 -48 0 -33 -4 -45 -17 -48 -10 -3 7 -4 37
-4 31 0 41 2 23 4 -28 4 -33 8 -33 32 0 34 32 65 60 58 11 -3 20 -1 20 4 0 12
-37 11 -61 -1 -13 -7 -19 -7 -19 0 0 5 -8 10 -17 9 -11 0 -13 -3 -5 -6z"/>
<path d="M6307 2782 c6 -4 13 -28 15 -52 l3 -45 55 -1 c30 -1 49 0 43 3 -8 3
-13 24 -13 54 0 40 -3 49 -17 48 -11 0 -13 -3 -5 -6 6 -2 12 -22 12 -44 0 -33
-4 -40 -24 -45 -36 -9 -46 2 -46 52 0 35 -3 44 -17 44 -12 0 -14 -3 -6 -8z"/>
<path d="M5353 2653 c26 -2 67 -2 90 0 23 2 2 3 -48 3 -49 0 -68 -1 -42 -3z"/>
<path d="M5843 2653 c26 -2 67 -2 90 0 23 2 2 3 -48 3 -49 0 -68 -1 -42 -3z"/>
<path d="M6010 2186 c0 -9 5 -16 10 -16 6 0 10 4 10 9 0 6 -4 13 -10 16 -5 3
-10 -1 -10 -9z"/>
<path d="M7460 2186 c0 -9 5 -16 10 -16 6 0 10 4 10 9 0 6 -4 13 -10 16 -5 3
-10 -1 -10 -9z"/>
<path d="M7780 2185 c0 -8 5 -15 10 -15 6 0 10 7 10 15 0 8 -4 15 -10 15 -5 0
-10 -7 -10 -15z"/>
<path d="M8111 2184 c0 -11 3 -14 6 -6 3 7 2 16 -1 19 -3 4 -6 -2 -5 -13z"/>
<path d="M4248 2183 c21 -4 23 -9 20 -71 -3 -61 -5 -67 -28 -73 -16 -5 -4 -7
35 -7 33 1 48 3 33 5 -28 4 -28 5 -28 79 l0 74 -27 -1 c-25 -2 -25 -2 -5 -6z"/>
<path d="M4906 2150 c-20 -52 -20 -66 4 -115 11 -22 18 -31 14 -20 -14 45 -16
106 -4 135 7 17 10 33 8 36 -3 3 -13 -13 -22 -36z"/>
<path d="M5852 2178 c-7 -7 -12 -18 -12 -24 0 -7 -8 -15 -17 -17 -17 -4 -17
-5 0 -6 13 -1 17 -10 17 -45 0 -34 -4 -46 -17 -49 -10 -3 5 -5 32 -4 28 0 38
2 23 4 -26 4 -28 8 -28 48 0 42 1 44 33 48 l32 4 -33 1 c-47 3 -40 35 8 43 35
6 35 6 5 8 -17 0 -36 -4 -43 -11z"/>
<path d="M8400 2184 c0 -3 5 -14 11 -26 14 -26 14 -101 -1 -128 -6 -12 -9 -24
-7 -27 10 -9 37 56 37 87 0 30 -24 100 -34 100 -4 0 -6 -3 -6 -6z"/>
<path d="M3911 2163 c0 -12 -9 -24 -18 -26 -16 -4 -16 -5 -1 -6 13 -1 18 -12
20 -48 3 -46 4 -48 37 -51 18 -2 37 0 42 5 5 5 -9 7 -31 5 l-40 -4 0 45 c0 44
1 46 33 50 l32 4 -32 1 c-24 2 -33 7 -36 25 -4 22 -4 22 -6 0z"/>
<path d="M3580 2156 c0 -8 -6 -17 -12 -19 -10 -4 -10 -6 0 -6 7 -1 12 -16 12
-39 0 -21 5 -43 12 -50 13 -13 74 -16 82 -4 2 4 -13 6 -35 4 l-39 -4 0 45 c0
44 1 46 33 50 l32 4 -32 1 c-22 1 -33 7 -33 17 0 8 -4 15 -10 15 -5 0 -10 -6
-10 -14z"/>
<path d="M4533 2134 c-9 -20 -9 -30 0 -45 14 -23 32 -26 23 -4 -4 12 4 15 39
15 25 0 45 5 45 10 0 6 -20 10 -44 10 -39 0 -44 2 -39 20 8 29 -10 24 -24 -6z"/>
<path d="M2816 2142 c-3 -3 -20 -5 -38 -5 -18 1 -27 -1 -20 -4 8 -3 12 -28 12
-73 0 -45 -4 -70 -12 -73 -7 -3 3 -5 22 -5 19 0 27 2 18 5 -12 3 -18 14 -18
34 0 27 2 29 20 19 27 -14 57 -4 76 26 15 22 15 26 1 48 -15 23 -50 39 -61 28z
m49 -51 c0 -41 -30 -58 -64 -35 -41 29 -18 77 34 72 27 -3 30 -7 30 -37z"/>
<path d="M2958 2143 c-21 -5 -31 -30 -15 -40 7 -4 26 -12 42 -18 17 -5 30 -17
30 -25 0 -19 -51 -26 -71 -9 -11 9 -14 8 -14 -3 0 -12 12 -15 48 -14 43 1 47
3 47 26 0 21 -7 27 -37 34 -21 5 -38 15 -38 23 0 16 52 17 68 1 9 -9 12 -8 12
5 0 9 -6 17 -14 17 -8 0 -20 2 -28 4 -7 2 -20 2 -30 -1z"/>
<path d="M3281 2138 c-35 -12 -22 -41 22 -51 27 -7 37 -14 35 -26 -4 -20 -54
-27 -74 -10 -11 9 -14 8 -14 -3 0 -10 13 -15 43 -17 79 -4 88 50 11 65 -42 8
-46 34 -6 34 15 0 33 -5 40 -12 9 -9 12 -8 12 4 0 19 -38 28 -69 16z"/>
<path d="M3770 2142 c-39 -12 -53 -68 -24 -96 34 -35 104 -8 104 41 0 32 -48
65 -80 55z m61 -33 c17 -33 -3 -69 -39 -69 -33 0 -52 16 -52 45 0 29 19 45 52
45 18 0 31 -7 39 -21z"/>
<path d="M4085 2139 c-15 -6 -12 -8 18 -8 45 -1 55 -31 9 -31 -37 0 -65 -21
-60 -46 3 -16 12 -19 62 -20 32 -1 53 1 48 5 -6 3 -12 26 -14 50 -3 48 -25 65
-63 50z m55 -68 c0 -28 -60 -45 -75 -21 -11 18 15 40 46 40 22 0 29 -5 29 -19z"/>
<path d="M5040 2140 c-8 -5 -26 -7 -40 -5 -14 3 -19 2 -12 -1 8 -4 12 -29 12
-74 0 -45 -4 -70 -12 -73 -7 -3 3 -5 22 -5 19 0 27 2 18 5 -12 3 -18 14 -18
34 0 27 2 29 21 19 45 -25 97 15 85 64 -3 13 -17 28 -31 34 -31 14 -26 14 -45
2z m60 -30 c12 -23 0 -54 -26 -64 -22 -8 -64 19 -64 42 0 43 70 60 90 22z"/>
<path d="M5191 2138 c-34 -12 -22 -40 24 -52 52 -15 54 -40 3 -44 -22 -2 -38
1 -38 7 0 6 -4 11 -10 11 -5 0 -10 -6 -10 -13 0 -19 83 -22 99 -4 18 22 4 43
-37 53 -20 5 -37 14 -37 19 0 16 57 18 66 3 7 -10 9 -9 9 3 0 20 -38 29 -69
17z"/>
<path d="M5511 2138 c-34 -12 -22 -40 24 -52 23 -7 40 -18 40 -26 0 -19 -51
-26 -71 -9 -11 9 -14 8 -14 -5 0 -12 10 -16 38 -16 46 0 65 12 60 36 -2 11
-17 22 -41 29 -21 6 -39 15 -40 20 -3 16 55 18 64 3 7 -10 9 -9 9 3 0 20 -38
29 -69 17z"/>
<path d="M6815 2140 c-11 -5 -31 -6 -45 -4 -14 2 -19 1 -12 -2 8 -4 12 -29 12
-74 0 -45 -4 -70 -12 -73 -7 -3 5 -5 27 -5 22 0 30 3 18 5 -18 3 -23 11 -23
34 0 33 0 33 34 18 20 -10 30 -9 51 5 54 35 11 119 -50 96z m53 -22 c19 -19
14 -46 -12 -63 -42 -27 -89 13 -66 56 12 22 59 26 78 7z"/>
<path d="M6961 2138 c-34 -12 -22 -40 24 -52 23 -7 40 -18 40 -26 0 -19 -51
-26 -71 -9 -11 9 -14 8 -14 -5 0 -12 10 -16 38 -16 46 0 65 12 60 36 -2 11
-17 22 -41 29 -21 6 -39 15 -40 20 -3 16 55 18 64 3 7 -10 9 -9 9 3 0 20 -38
29 -69 17z"/>
<path d="M7620 2140 c-6 -4 -22 -6 -34 -4 -11 2 -15 2 -8 -2 7 -3 12 -24 12
-49 0 -25 -5 -45 -12 -48 -7 -3 1 -6 17 -6 20 0 26 2 17 8 -8 5 -12 23 -10 47
3 36 5 39 33 39 29 0 30 -1 30 -48 0 -40 3 -47 20 -47 13 0 16 3 8 8 -6 4 -13
27 -15 51 -2 34 -8 46 -24 51 -11 5 -27 5 -34 0z"/>
<path d="M7929 2136 c-27 -13 -38 -68 -18 -92 13 -16 85 -19 94 -5 3 6 -9 7
-30 4 -40 -6 -65 9 -65 41 0 29 18 46 50 46 14 0 31 -5 38 -12 9 -9 12 -8 12
7 0 10 -3 16 -6 12 -3 -3 -16 -2 -29 3 -14 5 -31 4 -46 -4z"/>
<path d="M8249 2136 c-17 -8 -25 -22 -27 -44 -4 -43 12 -62 54 -62 25 0 38 7
51 26 15 23 15 29 2 52 -18 32 -50 44 -80 28z m71 -26 c6 -12 8 -30 5 -40 -7
-24 -52 -37 -74 -23 -20 13 -26 50 -11 69 19 21 67 18 80 -6z"/>
<path d="M3112 2085 c32 -60 28 -90 -14 -98 -13 -2 -6 -5 17 -5 22 -1 35 2 28
6 -8 5 -1 28 26 80 36 68 37 72 17 71 -11 0 -15 -3 -9 -6 9 -3 7 -15 -7 -44
-11 -21 -22 -39 -25 -39 -3 0 -14 18 -25 39 -14 29 -16 41 -7 44 6 3 2 6 -10
6 -21 1 -20 0 9 -54z"/>
<path d="M5342 2085 c32 -60 28 -90 -14 -98 -13 -2 -3 -5 22 -5 32 -1 41 1 30
8 -13 8 -10 20 21 80 34 66 35 70 15 69 -12 0 -15 -3 -9 -6 9 -3 7 -15 -8 -46
l-21 -41 -20 37 c-10 21 -16 42 -13 47 3 6 -3 10 -13 10 -19 0 -18 -4 10 -55z"/>
<path d="M5998 2133 c20 -4 23 -10 20 -46 -2 -34 -7 -42 -28 -48 -16 -5 -4 -7
35 -7 33 1 48 3 33 5 -26 4 -28 8 -28 54 0 47 -1 49 -27 48 -25 -2 -25 -2 -5
-6z"/>
<path d="M6108 2133 c7 -3 12 -22 12 -48 0 -25 -5 -45 -12 -48 -7 -3 1 -6 17
-6 20 0 26 2 17 8 -8 5 -12 23 -10 47 2 31 7 39 23 39 17 0 20 -8 23 -47 4
-62 17 -62 17 -1 0 37 4 48 18 51 14 3 17 -4 17 -47 0 -42 3 -51 18 -50 10 0
12 3 5 6 -8 3 -13 24 -13 53 l0 49 -72 -1 c-40 -1 -67 -3 -60 -5z"/>
<path d="M7086 2132 c6 -4 21 -27 33 -51 28 -54 22 -88 -17 -94 -17 -3 -11 -4
18 -5 28 -1 40 2 32 7 -11 6 -6 23 22 80 36 70 36 71 14 71 -16 0 -19 -3 -10
-9 11 -6 10 -15 -4 -44 -10 -21 -21 -37 -24 -37 -3 0 -14 16 -24 37 -14 29
-15 38 -4 44 9 6 3 9 -17 9 -16 0 -25 -4 -19 -8z"/>
<path d="M7448 2133 c20 -4 23 -10 20 -46 -2 -34 -7 -42 -28 -48 -16 -5 -4 -7
35 -7 33 1 48 3 33 5 -26 4 -28 8 -28 54 0 47 -1 49 -27 48 -25 -2 -25 -2 -5
-6z"/>
<path d="M7768 2133 c19 -4 22 -11 22 -48 0 -40 -2 -44 -27 -48 -16 -2 -1 -4
32 -4 33 0 48 2 33 4 -26 4 -28 8 -28 54 0 47 -1 49 -27 48 -24 -2 -25 -2 -5
-6z"/>
<path d="M8088 2133 c19 -4 22 -11 22 -48 0 -40 -2 -44 -27 -48 -16 -2 -1 -4
32 -4 33 0 48 2 33 4 -26 4 -28 8 -28 54 0 47 -1 49 -27 48 -24 -2 -25 -2 -5
-6z"/>
<path d="M6468 2103 c17 -2 47 -2 65 0 17 2 3 4 -33 4 -36 0 -50 -2 -32 -4z"/>
<path d="M3423 2003 c26 -2 67 -2 90 0 23 2 2 3 -48 3 -49 0 -68 -1 -42 -3z"/>
<path d="M5653 2003 c26 -2 67 -2 90 0 23 2 2 3 -48 3 -49 0 -68 -1 -42 -3z"/>
<path d="M7268 2003 c23 -2 61 -2 85 0 23 2 4 4 -43 4 -47 0 -66 -2 -42 -4z"/>
<path d="M6010 1866 c0 -9 5 -16 10 -16 6 0 10 4 10 9 0 6 -4 13 -10 16 -5 3
-10 -1 -10 -9z"/>
<path d="M7620 1865 c0 -8 5 -15 10 -15 6 0 10 7 10 15 0 8 -4 15 -10 15 -5 0
-10 -7 -10 -15z"/>
<path d="M7940 1865 c0 -8 5 -15 10 -15 6 0 10 7 10 15 0 8 -4 15 -10 15 -5 0
-10 -7 -10 -15z"/>
<path d="M8271 1864 c0 -11 3 -14 6 -6 3 7 2 16 -1 19 -3 4 -6 -2 -5 -13z"/>
<path d="M2848 1863 c6 -2 12 -15 12 -29 0 -20 -3 -22 -22 -15 -41 15 -78 -12
-78 -55 0 -38 25 -53 88 -52 31 0 51 3 45 5 -9 3 -13 29 -13 79 0 70 -1 74
-22 73 -13 0 -17 -3 -10 -6z m0 -65 c28 -28 7 -78 -33 -78 -27 0 -45 18 -45
45 0 27 18 45 45 45 12 0 26 -5 33 -12z"/>
<path d="M4248 1863 c21 -4 23 -9 20 -71 -3 -61 -5 -67 -28 -73 -16 -5 -4 -7
35 -7 33 1 48 3 33 5 -28 4 -28 5 -28 79 l0 74 -27 -1 c-25 -2 -25 -2 -5 -6z"/>
<path d="M4906 1830 c-20 -52 -20 -66 4 -115 11 -22 18 -31 14 -20 -14 45 -16
106 -4 135 7 17 10 33 8 36 -3 3 -13 -13 -22 -36z"/>
<path d="M5088 1863 c6 -2 12 -18 12 -33 0 -28 -1 -28 -27 -15 -58 30 -113
-44 -65 -88 22 -20 63 -22 80 -5 9 9 12 9 12 0 0 -7 8 -12 18 -11 10 0 12 3 5
6 -9 3 -13 29 -13 79 0 64 -2 74 -17 73 -11 0 -13 -3 -5 -6z m3 -74 c8 -16 8
-28 0 -46 -9 -20 -17 -24 -43 -21 -39 4 -61 45 -38 72 19 24 67 20 81 -5z"/>
<path d="M5852 1858 c-7 -7 -12 -18 -12 -24 0 -7 -8 -15 -17 -17 -17 -4 -17
-5 0 -6 13 -1 17 -10 17 -45 0 -34 -4 -46 -17 -49 -10 -3 5 -5 32 -4 28 0 38
2 23 4 -26 4 -28 8 -28 48 0 42 1 44 33 48 l32 4 -33 1 c-47 3 -40 35 8 43 35
6 35 6 5 8 -17 0 -36 -4 -43 -11z"/>
<path d="M6858 1863 c6 -2 12 -18 12 -34 0 -29 0 -29 -25 -13 -23 15 -27 15
-49 0 -33 -21 -41 -52 -22 -81 18 -27 63 -34 84 -13 9 9 12 9 12 0 0 -7 8 -12
18 -11 10 0 12 3 5 6 -9 3 -13 29 -13 79 0 64 -2 74 -17 73 -11 0 -13 -3 -5
-6z m5 -75 c18 -28 -7 -68 -43 -68 -38 0 -59 35 -40 69 14 27 67 26 83 -1z"/>
<path d="M8560 1864 c0 -3 5 -14 11 -26 14 -26 14 -101 -1 -128 -6 -12 -9 -24
-7 -27 10 -9 37 56 37 87 0 30 -24 100 -34 100 -4 0 -6 -3 -6 -6z"/>
<path d="M3911 1843 c0 -12 -9 -24 -18 -26 -16 -4 -16 -5 -1 -6 13 -1 18 -12
20 -48 3 -46 4 -48 37 -51 18 -2 37 0 42 5 5 5 -9 7 -31 5 l-40 -4 0 45 c0 44
1 46 33 50 l32 4 -32 1 c-24 2 -33 7 -36 25 -4 22 -4 22 -6 0z"/>
<path d="M3580 1836 c0 -8 -6 -17 -12 -19 -10 -4 -10 -6 0 -6 7 -1 12 -16 12
-39 0 -21 5 -43 12 -50 13 -13 74 -16 82 -4 2 4 -13 6 -35 4 l-39 -4 0 45 c0
44 1 46 33 50 l32 4 -32 1 c-22 1 -33 7 -33 17 0 8 -4 15 -10 15 -5 0 -10 -6
-10 -14z"/>
<path d="M4533 1814 c-9 -20 -9 -30 0 -45 14 -23 32 -26 23 -4 -4 12 4 15 39
15 25 0 45 5 45 10 0 6 -20 10 -44 10 -39 0 -44 2 -39 20 8 29 -10 24 -24 -6z"/>
<path d="M3120 1820 c-22 -6 -20 -8 14 -11 51 -5 61 -29 13 -29 -32 0 -67 -20
-67 -38 1 -23 21 -31 75 -30 32 1 54 3 47 6 -7 2 -12 20 -12 40 0 57 -22 75
-70 62z m55 -60 c11 -17 -15 -40 -46 -40 -35 0 -48 19 -24 37 22 16 61 17 70
3z"/>
<path d="M3770 1822 c-39 -12 -53 -68 -24 -96 34 -35 104 -8 104 41 0 32 -48
65 -80 55z m61 -33 c17 -33 -3 -69 -39 -69 -33 0 -52 16 -52 45 0 29 19 45 52
45 18 0 31 -7 39 -21z"/>
<path d="M4085 1819 c-15 -6 -12 -8 18 -8 45 -1 55 -31 9 -31 -37 0 -65 -21
-60 -46 3 -16 12 -19 62 -20 32 -1 53 1 48 5 -6 3 -12 26 -14 50 -3 48 -25 65
-63 50z m55 -68 c0 -28 -60 -45 -75 -21 -11 18 15 40 46 40 22 0 29 -5 29 -19z"/>
<path d="M5350 1820 c-22 -6 -20 -8 14 -11 51 -5 61 -29 13 -29 -38 0 -61 -19
-55 -47 3 -15 14 -18 62 -19 32 -1 53 1 48 5 -6 3 -12 26 -14 50 -3 49 -23 63
-68 51z m55 -60 c11 -18 -15 -40 -46 -40 -22 0 -29 5 -29 19 0 28 61 44 75 21z"/>
<path d="M5485 1819 c-16 -3 -24 -7 -17 -8 7 -1 12 -17 12 -45 0 -26 -5 -46
-12 -49 -7 -3 -4 -6 7 -6 17 -1 20 5 20 46 0 37 4 48 18 51 14 3 17 -4 17 -47
0 -42 3 -51 18 -50 10 0 12 3 5 6 -14 5 -17 50 -7 77 3 9 15 16 25 16 16 0 19
-8 19 -50 0 -41 3 -50 18 -50 11 0 13 3 5 8 -6 4 -13 28 -15 52 -3 43 -5 45
-34 46 -17 1 -35 3 -40 6 -5 2 -22 1 -39 -3z"/>
<path d="M7120 1819 c-21 -6 -17 -7 18 -8 30 -1 42 -5 42 -16 0 -10 -10 -15
-28 -15 -37 0 -65 -21 -60 -46 3 -16 12 -19 62 -20 32 -1 53 1 48 5 -6 3 -12
26 -14 50 -3 49 -23 63 -68 50z m60 -62 c0 -21 -22 -37 -52 -37 -21 0 -28 5
-28 19 0 22 13 29 53 30 16 1 27 -4 27 -12z"/>
<path d="M7780 1820 c-6 -4 -22 -6 -34 -4 -11 2 -15 2 -8 -2 7 -3 12 -24 12
-49 0 -25 -5 -45 -12 -48 -7 -3 1 -6 17 -6 20 0 26 2 17 8 -8 5 -12 23 -10 47
3 36 5 39 33 39 29 0 30 -1 30 -48 0 -40 3 -47 20 -47 13 0 16 3 8 8 -6 4 -13
27 -15 51 -2 34 -8 46 -24 51 -11 5 -27 5 -34 0z"/>
<path d="M8100 1823 c-39 -14 -53 -69 -24 -97 20 -21 78 -20 95 1 13 15 12 15
-8 5 -47 -25 -93 -9 -93 33 0 28 19 45 50 45 14 0 31 -5 38 -12 9 -9 12 -8 12
5 0 9 -6 17 -14 17 -8 0 -20 2 -28 4 -7 3 -20 2 -28 -1z"/>
<path d="M8420 1822 c-39 -12 -53 -68 -24 -96 34 -35 104 -8 104 41 0 32 -48
65 -80 55z m61 -33 c17 -33 -3 -69 -39 -69 -33 0 -52 16 -52 45 0 29 19 45 52
45 18 0 31 -7 39 -21z"/>
<path d="M2943 1813 c13 -3 17 -15 17 -48 0 -37 -3 -44 -22 -48 -13 -2 2 -4
32 -4 30 0 42 2 27 4 -26 4 -28 8 -25 41 3 32 8 39 38 49 31 10 32 12 10 12
-15 1 -31 -4 -38 -11 -9 -9 -12 -9 -12 0 0 7 -10 11 -22 11 -17 -1 -19 -2 -5
-6z"/>
<path d="M3235 1765 c0 -48 2 -55 20 -55 15 0 16 3 7 9 -8 5 -12 23 -10 47 2
32 7 40 26 42 20 3 22 0 22 -47 0 -28 3 -51 8 -51 4 0 7 21 7 47 0 41 3 48 20
48 17 0 20 -8 23 -47 2 -27 7 -48 11 -48 7 0 5 39 -4 86 -4 19 -12 21 -67 22
l-63 1 0 -54z"/>
<path d="M5178 1813 c7 -3 12 -23 12 -48 0 -33 -4 -45 -17 -48 -10 -3 7 -4 37
-4 31 0 41 2 23 4 -28 4 -33 8 -33 32 0 34 32 65 60 58 11 -3 20 -1 20 4 0 12
-37 11 -61 -1 -13 -7 -19 -7 -19 0 0 5 -8 10 -17 9 -11 0 -13 -3 -5 -6z"/>
<path d="M5998 1813 c20 -4 23 -10 20 -46 -2 -34 -7 -42 -28 -48 -16 -5 -4 -7
35 -7 33 1 48 3 33 5 -26 4 -28 8 -28 54 0 47 -1 49 -27 48 -25 -2 -25 -2 -5
-6z"/>
<path d="M6108 1813 c7 -3 12 -22 12 -48 0 -25 -5 -45 -12 -48 -7 -3 1 -6 17
-6 20 0 26 2 17 8 -8 5 -12 23 -10 47 2 31 7 39 23 39 17 0 20 -8 23 -47 4
-62 17 -62 17 -1 0 37 4 48 18 51 14 3 17 -4 17 -47 0 -42 3 -51 18 -50 10 0
12 3 5 6 -8 3 -13 24 -13 53 l0 49 -72 -1 c-40 -1 -67 -3 -60 -5z"/>
<path d="M6948 1813 c7 -3 12 -23 12 -48 0 -33 -4 -45 -17 -48 -10 -3 7 -4 37
-4 31 0 41 2 23 4 -28 4 -33 8 -33 32 0 34 32 65 60 58 11 -3 20 -1 20 4 0 13
-44 11 -59 -3 -11 -10 -14 -10 -18 0 -3 6 -12 12 -21 11 -11 0 -12 -2 -4 -6z"/>
<path d="M7238 1813 c7 -3 12 -22 12 -48 0 -25 -5 -45 -12 -48 -7 -3 1 -6 17
-6 20 0 26 2 17 8 -8 5 -12 23 -10 47 2 31 7 39 23 39 17 0 20 -8 23 -47 4
-62 17 -62 17 -1 0 37 4 48 18 51 14 3 17 -4 17 -47 0 -42 3 -51 18 -50 10 0
12 3 5 6 -8 3 -13 24 -13 53 l0 49 -72 -1 c-40 -1 -67 -3 -60 -5z"/>
<path d="M7608 1813 c19 -4 22 -11 22 -48 0 -40 -2 -44 -27 -48 -16 -2 -1 -4
32 -4 33 0 48 2 33 4 -26 4 -28 8 -28 54 0 47 -1 49 -27 48 -24 -2 -25 -2 -5
-6z"/>
<path d="M7928 1813 c19 -4 22 -11 22 -48 0 -40 -2 -44 -27 -48 -16 -2 -1 -4
32 -4 33 0 48 2 33 4 -26 4 -28 8 -28 54 0 47 -1 49 -27 48 -24 -2 -25 -2 -5
-6z"/>
<path d="M8248 1813 c19 -4 22 -11 22 -48 0 -40 -2 -44 -27 -48 -16 -2 -1 -4
32 -4 33 0 48 2 33 4 -26 4 -28 8 -28 54 0 47 -1 49 -27 48 -24 -2 -25 -2 -5
-6z"/>
<path d="M6468 1783 c17 -2 47 -2 65 0 17 2 3 4 -33 4 -36 0 -50 -2 -32 -4z"/>
<path d="M3423 1683 c26 -2 67 -2 90 0 23 2 2 3 -48 3 -49 0 -68 -1 -42 -3z"/>
<path d="M5653 1683 c26 -2 67 -2 90 0 23 2 2 3 -48 3 -49 0 -68 -1 -42 -3z"/>
<path d="M7428 1683 c23 -2 61 -2 85 0 23 2 4 4 -43 4 -47 0 -66 -2 -42 -4z"/>
<path d="M3438 1213 c20 -4 22 -10 22 -73 0 -67 -1 -69 -27 -73 -16 -2 -1 -4
32 -4 33 0 48 2 33 4 -28 4 -28 5 -28 79 l0 74 -27 -1 c-24 -2 -25 -2 -5 -6z"/>
<path d="M4105 1196 c-9 -13 -17 -42 -18 -63 -1 -40 19 -103 34 -103 4 0 1 16
-7 35 -7 19 -14 46 -14 60 0 14 7 41 14 60 17 41 13 45 -9 11z"/>
<path d="M5513 1213 c14 -4 17 -16 17 -73 0 -67 -1 -69 -27 -73 -16 -2 -1 -4
32 -4 33 0 48 2 33 4 -28 4 -28 5 -28 79 0 70 -1 74 -22 73 -17 -1 -19 -2 -5
-6z"/>
<path d="M6208 1213 c6 -2 12 -15 12 -29 0 -20 -3 -22 -22 -15 -41 15 -78 -12
-78 -55 0 -38 25 -53 88 -52 31 0 51 3 45 5 -9 3 -13 29 -13 79 0 70 -1 74
-22 73 -13 0 -17 -3 -10 -6z m0 -65 c28 -28 7 -78 -33 -78 -27 0 -45 18 -45
45 0 27 18 45 45 45 12 0 26 -5 33 -12z"/>
<path d="M7608 1213 c20 -4 22 -10 22 -73 0 -67 -1 -69 -27 -73 -16 -2 -1 -4
32 -4 33 0 48 2 33 4 -28 4 -28 5 -28 79 l0 74 -27 -1 c-24 -2 -25 -2 -5 -6z"/>
<path d="M7766 1185 c7 -19 14 -46 14 -60 0 -14 -7 -41 -14 -60 -8 -19 -11
-35 -7 -35 13 0 35 60 35 95 0 35 -22 95 -35 95 -4 0 -1 -16 7 -35z"/>
<path d="M2781 1193 c0 -12 -9 -24 -18 -26 -16 -4 -16 -5 -1 -6 13 -1 18 -12
20 -48 3 -46 4 -48 37 -51 18 -2 37 0 42 5 4 4 -9 8 -29 8 -36 0 -37 1 -40 42
-3 42 -3 42 35 46 l38 4 -37 1 c-29 2 -37 6 -41 25 -4 22 -4 22 -6 0z"/>
<path d="M3101 1193 c0 -12 -7 -24 -13 -26 -10 -4 -10 -6 0 -6 7 -1 12 -15 12
-35 0 -56 8 -66 51 -66 21 0 39 3 39 8 0 4 -17 7 -37 7 -37 0 -38 1 -41 42 -3
42 -3 42 35 46 l38 4 -37 1 c-29 2 -37 6 -41 25 -4 22 -4 22 -6 0z"/>
<path d="M4851 1193 c0 -12 -7 -24 -13 -26 -10 -4 -10 -6 0 -6 7 -1 12 -15 12
-35 0 -56 8 -66 51 -66 21 0 39 3 39 8 0 4 -17 7 -37 7 -37 0 -38 1 -41 42 -3
42 -3 42 35 46 l38 4 -37 1 c-29 2 -37 6 -41 25 -4 22 -4 22 -6 0z"/>
<path d="M6951 1193 c0 -12 -9 -24 -18 -26 -16 -4 -16 -5 -1 -6 13 -1 18 -12
20 -48 3 -46 4 -48 37 -51 18 -2 37 0 42 5 5 5 -9 7 -31 5 l-40 -4 0 45 c0 44
1 46 33 50 l32 4 -32 1 c-24 2 -33 7 -36 25 -4 22 -4 22 -6 0z"/>
<path d="M7271 1193 c0 -12 -9 -24 -18 -26 -16 -4 -16 -5 -1 -6 13 -1 18 -12
20 -48 3 -46 4 -48 37 -51 18 -2 37 0 42 5 4 4 -9 8 -29 8 -36 0 -37 1 -40 42
-3 42 -3 42 35 46 l38 4 -37 1 c-29 2 -37 6 -41 25 -4 22 -4 22 -6 0z"/>
<path d="M5170 1186 c0 -8 -6 -17 -12 -19 -10 -4 -10 -6 0 -6 7 -1 12 -16 12
-39 0 -21 5 -43 12 -50 13 -13 74 -16 82 -4 2 4 -13 6 -35 4 l-39 -4 0 45 c0
44 1 46 33 50 l32 4 -32 1 c-22 1 -33 7 -33 17 0 8 -4 15 -10 15 -5 0 -10 -6
-10 -14z"/>
<path d="M5852 1173 c-2 -26 -7 -32 -29 -36 l-28 -4 27 -2 c22 -1 27 -6 31
-33 l4 -33 1 32 c2 28 6 32 35 36 l32 4 -32 1 c-28 2 -32 6 -36 35 l-4 32 -1
-32z"/>
<path d="M3731 1168 c-11 -21 -11 -30 0 -49 11 -20 14 -21 17 -6 3 13 13 17
42 17 21 0 42 5 45 10 4 6 -11 10 -39 10 -38 0 -45 3 -48 22 -3 21 -3 21 -17
-4z"/>
<path d="M2947 1159 c-31 -24 -35 -59 -9 -82 38 -35 102 -12 102 37 0 52 -52
78 -93 45z m71 -11 c16 -16 15 -53 -2 -67 -8 -7 -27 -11 -43 -9 -34 4 -54 47
-33 72 15 19 61 21 78 4z"/>
<path d="M3280 1170 c-22 -6 -20 -8 14 -11 51 -5 61 -29 13 -29 -32 0 -67 -20
-67 -38 1 -23 21 -31 75 -30 32 1 54 3 47 6 -7 2 -12 20 -12 40 0 57 -22 75
-70 62z m55 -60 c11 -17 -15 -40 -46 -40 -35 0 -48 19 -24 37 22 16 61 17 70
3z"/>
<path d="M4230 1168 c-43 -16 -54 -62 -22 -91 28 -25 102 -20 102 6 0 7 -4 7
-12 -1 -7 -7 -27 -12 -45 -12 -41 0 -62 34 -44 69 12 22 64 30 76 11 9 -14 27
-12 23 2 -6 17 -50 26 -78 16z"/>
<path d="M4406 1173 c-3 -3 -20 -6 -38 -6 -18 1 -27 -1 -20 -4 8 -3 12 -28 12
-73 0 -45 -4 -70 -12 -73 -7 -3 3 -5 22 -5 19 0 27 2 18 5 -12 3 -18 14 -18
34 0 27 2 28 25 17 19 -9 29 -8 50 6 27 18 35 66 13 83 -19 14 -45 22 -52 16z
m44 -28 c16 -19 5 -61 -18 -67 -31 -8 -62 9 -62 35 0 13 5 28 12 35 17 17 53
15 68 -3z"/>
<path d="M5032 1169 c-61 -23 -45 -109 21 -109 41 0 57 15 57 56 0 45 -35 69
-78 53z m58 -23 c15 -19 9 -56 -11 -69 -9 -5 -28 -7 -42 -3 -52 13 -42 86 12
86 16 0 34 -7 41 -14z"/>
<path d="M5350 1170 c-22 -6 -20 -8 14 -11 51 -5 61 -29 13 -29 -38 0 -61 -19
-55 -47 3 -15 14 -18 62 -19 32 -1 53 1 48 5 -6 3 -12 26 -14 50 -3 49 -23 63
-68 51z m55 -60 c11 -18 -15 -40 -46 -40 -22 0 -29 5 -29 19 0 28 61 44 75 21z"/>
<path d="M6480 1170 c-22 -6 -20 -8 14 -11 51 -5 61 -29 13 -29 -32 0 -67 -20
-67 -38 1 -23 21 -31 75 -30 32 1 54 3 47 6 -7 2 -12 20 -12 40 0 57 -22 75
-70 62z m55 -60 c11 -17 -15 -40 -46 -40 -35 0 -48 19 -24 37 22 16 61 17 70
3z"/>
<path d="M6620 1171 c-23 -5 -25 -11 -25 -59 0 -40 4 -52 15 -52 11 0 15 12
15 47 0 37 4 48 18 51 14 3 17 -4 17 -47 0 -42 3 -51 18 -51 13 0 14 2 4 9 -8
5 -12 23 -10 47 2 31 7 39 23 39 17 0 20 -8 23 -47 2 -27 6 -48 10 -48 4 0 5
24 2 53 -5 50 -6 52 -35 52 -16 0 -34 3 -40 6 -5 3 -21 3 -35 0z"/>
<path d="M7130 1172 c-39 -12 -53 -68 -24 -96 34 -35 104 -8 104 41 0 32 -48
65 -80 55z m61 -33 c17 -33 -3 -69 -39 -69 -33 0 -52 16 -52 45 0 29 19 45 52
45 18 0 31 -7 39 -21z"/>
<path d="M7445 1169 c-15 -6 -12 -8 18 -8 45 -1 55 -31 9 -31 -37 0 -65 -21
-60 -46 3 -16 12 -19 62 -20 32 -1 53 1 48 5 -6 3 -12 26 -14 50 -3 48 -25 65
-63 50z m55 -68 c0 -28 -60 -45 -75 -21 -11 18 15 40 46 40 22 0 29 -5 29 -19z"/>
<path d="M4508 1163 c6 -2 12 -21 12 -41 0 -53 10 -62 61 -60 l44 2 -3 53 c-3
47 -6 53 -25 52 -17 -1 -18 -2 -4 -6 12 -3 17 -14 17 -37 0 -37 -15 -56 -46
-56 -25 0 -34 17 -34 66 0 26 -4 34 -17 33 -11 0 -13 -3 -5 -6z"/>
<path d="M6303 1163 c13 -3 17 -15 17 -48 0 -33 -4 -45 -17 -48 -10 -3 5 -5
32 -4 28 0 38 2 23 4 -24 4 -28 9 -28 37 0 32 12 44 60 59 11 4 10 6 -3 6 -10
1 -27 -4 -38 -9 -13 -7 -19 -7 -19 0 0 5 -10 9 -22 9 -17 -1 -19 -2 -5 -6z"/>
<path d="M4688 1033 c23 -2 61 -2 85 0 23 2 4 4 -43 4 -47 0 -66 -2 -42 -4z"/>
<path d="M6783 1033 c26 -2 67 -2 90 0 23 2 2 3 -48 3 -49 0 -68 -1 -42 -3z"/>
<path d="M2500 565 c-20 -24 -6 -28 15 -5 10 11 13 20 8 20 -6 0 -16 -7 -23
-15z"/>
<path d="M2810 566 c0 -9 5 -16 10 -16 6 0 10 4 10 9 0 6 -4 13 -10 16 -5 3
-10 -1 -10 -9z"/>
<path d="M3759 559 c-21 -21 -26 -96 -9 -130 26 -47 90 -6 90 58 0 73 -42 111
-81 72z m65 -31 c23 -64 -27 -139 -61 -92 -16 23 -17 96 -1 112 20 20 52 10
62 -20z"/>
<path d="M3919 559 c-21 -21 -26 -96 -9 -130 26 -47 90 -6 90 58 0 73 -42 111
-81 72z m65 -31 c23 -64 -27 -139 -61 -92 -16 23 -17 96 -1 112 20 20 52 10
62 -20z"/>
<path d="M3590 559 c-12 -9 -11 -10 8 -6 21 5 22 2 22 -63 0 -63 -2 -69 -22
-73 -13 -2 2 -4 32 -4 30 0 43 2 28 4 -28 4 -28 5 -28 79 0 76 -7 87 -40 63z"/>
<path d="M2301 543 c0 -12 -9 -24 -18 -26 -16 -4 -16 -5 -1 -6 13 -1 18 -12
20 -48 3 -46 4 -48 37 -51 18 -2 37 0 42 5 5 5 -9 7 -31 5 l-40 -4 0 45 c0 44
1 46 33 50 l32 4 -32 1 c-24 2 -33 7 -36 25 -4 22 -4 22 -6 0z"/>
<path d="M3149 522 c-26 -15 -48 -30 -50 -35 -2 -4 20 -21 50 -38 29 -17 50
-26 46 -20 -3 6 -24 20 -46 31 -21 11 -39 22 -39 25 0 3 18 14 39 25 22 11 42
24 46 30 9 14 6 13 -46 -18z"/>
<path d="M2150 520 c-22 -6 -20 -8 14 -11 51 -5 61 -29 13 -29 -38 0 -61 -19
-55 -47 3 -15 14 -18 62 -19 32 -1 53 1 48 5 -6 3 -12 26 -14 50 -3 49 -23 63
-68 51z m55 -60 c11 -18 -15 -40 -46 -40 -22 0 -29 5 -29 19 0 28 61 44 75 21z"/>
<path d="M2468 516 c-29 -14 -36 -66 -13 -90 17 -16 80 -22 89 -8 2 4 -11 6
-30 4 -33 -4 -64 10 -64 29 0 5 22 9 49 9 57 0 66 8 46 37 -19 26 -47 34 -77
19z m70 -28 c3 -15 -4 -18 -42 -18 -32 0 -46 4 -46 13 0 22 12 28 50 25 24 -2
36 -9 38 -20z"/>
<path d="M2798 513 c20 -4 23 -10 20 -46 -2 -34 -7 -42 -28 -48 -16 -5 -4 -7
35 -7 33 1 48 3 33 5 -26 4 -28 8 -28 54 0 47 -1 49 -27 48 -25 -2 -25 -2 -5
-6z"/>
<path d="M3267 503 c18 -2 50 -2 70 0 21 2 7 4 -32 4 -38 0 -55 -2 -38 -4z"/>
<path d="M3267 463 c18 -2 50 -2 70 0 21 2 7 4 -32 4 -38 0 -55 -2 -38 -4z"/>
<path d="M1680 235 c0 -8 5 -15 10 -15 6 0 10 7 10 15 0 8 -4 15 -10 15 -5 0
-10 -7 -10 -15z"/>
<path d="M1468 223 c8 -3 12 -27 12 -68 0 -41 -4 -65 -12 -68 -7 -3 7 -5 32
-5 34 0 39 2 20 7 -18 5 -26 15 -28 35 -3 26 -1 28 22 24 21 -4 26 -1 26 16 0
16 -2 18 -9 7 -13 -21 -41 -5 -41 24 0 23 4 25 44 25 34 0 46 -4 49 -17 4 -14
5 -12 6 5 1 21 -3 22 -66 21 -38 0 -62 -3 -55 -6z"/>
<path d="M1668 183 c19 -4 22 -11 22 -48 0 -40 -2 -44 -27 -48 -16 -2 -1 -4
32 -4 33 0 48 2 33 4 -26 4 -28 8 -28 54 0 47 -1 49 -27 48 -24 -2 -25 -2 -5
-6z"/>
<path d="M1785 135 c0 -48 2 -55 20 -55 15 0 16 3 7 9 -8 5 -12 23 -10 47 2
32 7 40 26 42 20 3 22 0 22 -47 0 -28 3 -51 8 -51 4 0 7 21 7 47 0 41 3 48 20
48 17 0 20 -8 23 -47 2 -27 7 -48 11 -48 7 0 5 39 -4 86 -4 19 -12 21 -67 22
l-63 1 0 -54z"/>
</g>
</svg>
